%TF.GenerationSoftware,KiCad,Pcbnew,9.0.3*%
%TF.CreationDate,2026-02-22T22:03:45+00:00*%
%TF.ProjectId,AmiBLEHID,416d6942-4c45-4484-9944-2e6b69636164,rev?*%
%TF.SameCoordinates,Original*%
%TF.FileFunction,Legend,Top*%
%TF.FilePolarity,Positive*%
%FSLAX46Y46*%
G04 Gerber Fmt 4.6, Leading zero omitted, Abs format (unit mm)*
G04 Created by KiCad (PCBNEW 9.0.3) date 2026-02-22 22:03:45*
%MOMM*%
%LPD*%
G01*
G04 APERTURE LIST*
%ADD10C,0.100000*%
%ADD11C,0.150000*%
%ADD12C,0.120000*%
G04 APERTURE END LIST*
D10*
X93419894Y-60540752D02*
X93657989Y-61207419D01*
X93657989Y-61207419D02*
X93896084Y-60540752D01*
X94467513Y-60207419D02*
X94562751Y-60207419D01*
X94562751Y-60207419D02*
X94657989Y-60255038D01*
X94657989Y-60255038D02*
X94705608Y-60302657D01*
X94705608Y-60302657D02*
X94753227Y-60397895D01*
X94753227Y-60397895D02*
X94800846Y-60588371D01*
X94800846Y-60588371D02*
X94800846Y-60826466D01*
X94800846Y-60826466D02*
X94753227Y-61016942D01*
X94753227Y-61016942D02*
X94705608Y-61112180D01*
X94705608Y-61112180D02*
X94657989Y-61159800D01*
X94657989Y-61159800D02*
X94562751Y-61207419D01*
X94562751Y-61207419D02*
X94467513Y-61207419D01*
X94467513Y-61207419D02*
X94372275Y-61159800D01*
X94372275Y-61159800D02*
X94324656Y-61112180D01*
X94324656Y-61112180D02*
X94277037Y-61016942D01*
X94277037Y-61016942D02*
X94229418Y-60826466D01*
X94229418Y-60826466D02*
X94229418Y-60588371D01*
X94229418Y-60588371D02*
X94277037Y-60397895D01*
X94277037Y-60397895D02*
X94324656Y-60302657D01*
X94324656Y-60302657D02*
X94372275Y-60255038D01*
X94372275Y-60255038D02*
X94467513Y-60207419D01*
X95229418Y-61112180D02*
X95277037Y-61159800D01*
X95277037Y-61159800D02*
X95229418Y-61207419D01*
X95229418Y-61207419D02*
X95181799Y-61159800D01*
X95181799Y-61159800D02*
X95229418Y-61112180D01*
X95229418Y-61112180D02*
X95229418Y-61207419D01*
X95610370Y-60207419D02*
X96229417Y-60207419D01*
X96229417Y-60207419D02*
X95896084Y-60588371D01*
X95896084Y-60588371D02*
X96038941Y-60588371D01*
X96038941Y-60588371D02*
X96134179Y-60635990D01*
X96134179Y-60635990D02*
X96181798Y-60683609D01*
X96181798Y-60683609D02*
X96229417Y-60778847D01*
X96229417Y-60778847D02*
X96229417Y-61016942D01*
X96229417Y-61016942D02*
X96181798Y-61112180D01*
X96181798Y-61112180D02*
X96134179Y-61159800D01*
X96134179Y-61159800D02*
X96038941Y-61207419D01*
X96038941Y-61207419D02*
X95753227Y-61207419D01*
X95753227Y-61207419D02*
X95657989Y-61159800D01*
X95657989Y-61159800D02*
X95610370Y-61112180D01*
X90584179Y-59120640D02*
X91155608Y-59120640D01*
X90469893Y-59463497D02*
X90869893Y-58263497D01*
X90869893Y-58263497D02*
X91269893Y-59463497D01*
X91669893Y-59463497D02*
X91669893Y-58663497D01*
X91669893Y-58777783D02*
X91727036Y-58720640D01*
X91727036Y-58720640D02*
X91841321Y-58663497D01*
X91841321Y-58663497D02*
X92012750Y-58663497D01*
X92012750Y-58663497D02*
X92127036Y-58720640D01*
X92127036Y-58720640D02*
X92184179Y-58834926D01*
X92184179Y-58834926D02*
X92184179Y-59463497D01*
X92184179Y-58834926D02*
X92241321Y-58720640D01*
X92241321Y-58720640D02*
X92355607Y-58663497D01*
X92355607Y-58663497D02*
X92527036Y-58663497D01*
X92527036Y-58663497D02*
X92641321Y-58720640D01*
X92641321Y-58720640D02*
X92698464Y-58834926D01*
X92698464Y-58834926D02*
X92698464Y-59463497D01*
X93269893Y-59463497D02*
X93269893Y-58663497D01*
X93269893Y-58263497D02*
X93212750Y-58320640D01*
X93212750Y-58320640D02*
X93269893Y-58377783D01*
X93269893Y-58377783D02*
X93327036Y-58320640D01*
X93327036Y-58320640D02*
X93269893Y-58263497D01*
X93269893Y-58263497D02*
X93269893Y-58377783D01*
X94241322Y-58834926D02*
X94412750Y-58892069D01*
X94412750Y-58892069D02*
X94469893Y-58949212D01*
X94469893Y-58949212D02*
X94527036Y-59063497D01*
X94527036Y-59063497D02*
X94527036Y-59234926D01*
X94527036Y-59234926D02*
X94469893Y-59349212D01*
X94469893Y-59349212D02*
X94412750Y-59406355D01*
X94412750Y-59406355D02*
X94298465Y-59463497D01*
X94298465Y-59463497D02*
X93841322Y-59463497D01*
X93841322Y-59463497D02*
X93841322Y-58263497D01*
X93841322Y-58263497D02*
X94241322Y-58263497D01*
X94241322Y-58263497D02*
X94355608Y-58320640D01*
X94355608Y-58320640D02*
X94412750Y-58377783D01*
X94412750Y-58377783D02*
X94469893Y-58492069D01*
X94469893Y-58492069D02*
X94469893Y-58606355D01*
X94469893Y-58606355D02*
X94412750Y-58720640D01*
X94412750Y-58720640D02*
X94355608Y-58777783D01*
X94355608Y-58777783D02*
X94241322Y-58834926D01*
X94241322Y-58834926D02*
X93841322Y-58834926D01*
X95612750Y-59463497D02*
X95041322Y-59463497D01*
X95041322Y-59463497D02*
X95041322Y-58263497D01*
X96012751Y-58834926D02*
X96412751Y-58834926D01*
X96584179Y-59463497D02*
X96012751Y-59463497D01*
X96012751Y-59463497D02*
X96012751Y-58263497D01*
X96012751Y-58263497D02*
X96584179Y-58263497D01*
X97098465Y-59463497D02*
X97098465Y-58263497D01*
X97098465Y-58834926D02*
X97784179Y-58834926D01*
X97784179Y-59463497D02*
X97784179Y-58263497D01*
X98355608Y-59463497D02*
X98355608Y-58263497D01*
X98927037Y-59463497D02*
X98927037Y-58263497D01*
X98927037Y-58263497D02*
X99212751Y-58263497D01*
X99212751Y-58263497D02*
X99384180Y-58320640D01*
X99384180Y-58320640D02*
X99498465Y-58434926D01*
X99498465Y-58434926D02*
X99555608Y-58549212D01*
X99555608Y-58549212D02*
X99612751Y-58777783D01*
X99612751Y-58777783D02*
X99612751Y-58949212D01*
X99612751Y-58949212D02*
X99555608Y-59177783D01*
X99555608Y-59177783D02*
X99498465Y-59292069D01*
X99498465Y-59292069D02*
X99384180Y-59406355D01*
X99384180Y-59406355D02*
X99212751Y-59463497D01*
X99212751Y-59463497D02*
X98927037Y-59463497D01*
D11*
X84931637Y-46138535D02*
X85074494Y-46186154D01*
X85074494Y-46186154D02*
X85312589Y-46186154D01*
X85312589Y-46186154D02*
X85407827Y-46138535D01*
X85407827Y-46138535D02*
X85455446Y-46090915D01*
X85455446Y-46090915D02*
X85503065Y-45995677D01*
X85503065Y-45995677D02*
X85503065Y-45900439D01*
X85503065Y-45900439D02*
X85455446Y-45805201D01*
X85455446Y-45805201D02*
X85407827Y-45757582D01*
X85407827Y-45757582D02*
X85312589Y-45709963D01*
X85312589Y-45709963D02*
X85122113Y-45662344D01*
X85122113Y-45662344D02*
X85026875Y-45614725D01*
X85026875Y-45614725D02*
X84979256Y-45567106D01*
X84979256Y-45567106D02*
X84931637Y-45471868D01*
X84931637Y-45471868D02*
X84931637Y-45376630D01*
X84931637Y-45376630D02*
X84979256Y-45281392D01*
X84979256Y-45281392D02*
X85026875Y-45233773D01*
X85026875Y-45233773D02*
X85122113Y-45186154D01*
X85122113Y-45186154D02*
X85360208Y-45186154D01*
X85360208Y-45186154D02*
X85503065Y-45233773D01*
X85788780Y-45519487D02*
X86169732Y-45519487D01*
X85931637Y-45186154D02*
X85931637Y-46043296D01*
X85931637Y-46043296D02*
X85979256Y-46138535D01*
X85979256Y-46138535D02*
X86074494Y-46186154D01*
X86074494Y-46186154D02*
X86169732Y-46186154D01*
X86931637Y-46186154D02*
X86931637Y-45662344D01*
X86931637Y-45662344D02*
X86884018Y-45567106D01*
X86884018Y-45567106D02*
X86788780Y-45519487D01*
X86788780Y-45519487D02*
X86598304Y-45519487D01*
X86598304Y-45519487D02*
X86503066Y-45567106D01*
X86931637Y-46138535D02*
X86836399Y-46186154D01*
X86836399Y-46186154D02*
X86598304Y-46186154D01*
X86598304Y-46186154D02*
X86503066Y-46138535D01*
X86503066Y-46138535D02*
X86455447Y-46043296D01*
X86455447Y-46043296D02*
X86455447Y-45948058D01*
X86455447Y-45948058D02*
X86503066Y-45852820D01*
X86503066Y-45852820D02*
X86598304Y-45805201D01*
X86598304Y-45805201D02*
X86836399Y-45805201D01*
X86836399Y-45805201D02*
X86931637Y-45757582D01*
X87264971Y-45519487D02*
X87645923Y-45519487D01*
X87407828Y-45186154D02*
X87407828Y-46043296D01*
X87407828Y-46043296D02*
X87455447Y-46138535D01*
X87455447Y-46138535D02*
X87550685Y-46186154D01*
X87550685Y-46186154D02*
X87645923Y-46186154D01*
X88407828Y-45519487D02*
X88407828Y-46186154D01*
X87979257Y-45519487D02*
X87979257Y-46043296D01*
X87979257Y-46043296D02*
X88026876Y-46138535D01*
X88026876Y-46138535D02*
X88122114Y-46186154D01*
X88122114Y-46186154D02*
X88264971Y-46186154D01*
X88264971Y-46186154D02*
X88360209Y-46138535D01*
X88360209Y-46138535D02*
X88407828Y-46090915D01*
X88836400Y-46138535D02*
X88931638Y-46186154D01*
X88931638Y-46186154D02*
X89122114Y-46186154D01*
X89122114Y-46186154D02*
X89217352Y-46138535D01*
X89217352Y-46138535D02*
X89264971Y-46043296D01*
X89264971Y-46043296D02*
X89264971Y-45995677D01*
X89264971Y-45995677D02*
X89217352Y-45900439D01*
X89217352Y-45900439D02*
X89122114Y-45852820D01*
X89122114Y-45852820D02*
X88979257Y-45852820D01*
X88979257Y-45852820D02*
X88884019Y-45805201D01*
X88884019Y-45805201D02*
X88836400Y-45709963D01*
X88836400Y-45709963D02*
X88836400Y-45662344D01*
X88836400Y-45662344D02*
X88884019Y-45567106D01*
X88884019Y-45567106D02*
X88979257Y-45519487D01*
X88979257Y-45519487D02*
X89122114Y-45519487D01*
X89122114Y-45519487D02*
X89217352Y-45567106D01*
X98238095Y-48954819D02*
X98238095Y-49764342D01*
X98238095Y-49764342D02*
X98285714Y-49859580D01*
X98285714Y-49859580D02*
X98333333Y-49907200D01*
X98333333Y-49907200D02*
X98428571Y-49954819D01*
X98428571Y-49954819D02*
X98619047Y-49954819D01*
X98619047Y-49954819D02*
X98714285Y-49907200D01*
X98714285Y-49907200D02*
X98761904Y-49859580D01*
X98761904Y-49859580D02*
X98809523Y-49764342D01*
X98809523Y-49764342D02*
X98809523Y-48954819D01*
X99238095Y-49050057D02*
X99285714Y-49002438D01*
X99285714Y-49002438D02*
X99380952Y-48954819D01*
X99380952Y-48954819D02*
X99619047Y-48954819D01*
X99619047Y-48954819D02*
X99714285Y-49002438D01*
X99714285Y-49002438D02*
X99761904Y-49050057D01*
X99761904Y-49050057D02*
X99809523Y-49145295D01*
X99809523Y-49145295D02*
X99809523Y-49240533D01*
X99809523Y-49240533D02*
X99761904Y-49383390D01*
X99761904Y-49383390D02*
X99190476Y-49954819D01*
X99190476Y-49954819D02*
X99809523Y-49954819D01*
X92274286Y-50954819D02*
X92940952Y-50954819D01*
X92940952Y-50954819D02*
X92512381Y-51954819D01*
X93750476Y-51288152D02*
X93750476Y-51954819D01*
X93512381Y-50907200D02*
X93274286Y-51621485D01*
X93274286Y-51621485D02*
X93893333Y-51621485D01*
X94274286Y-51954819D02*
X94274286Y-50954819D01*
X94274286Y-51431009D02*
X94845714Y-51431009D01*
X94845714Y-51954819D02*
X94845714Y-50954819D01*
X95893333Y-51859580D02*
X95845714Y-51907200D01*
X95845714Y-51907200D02*
X95702857Y-51954819D01*
X95702857Y-51954819D02*
X95607619Y-51954819D01*
X95607619Y-51954819D02*
X95464762Y-51907200D01*
X95464762Y-51907200D02*
X95369524Y-51811961D01*
X95369524Y-51811961D02*
X95321905Y-51716723D01*
X95321905Y-51716723D02*
X95274286Y-51526247D01*
X95274286Y-51526247D02*
X95274286Y-51383390D01*
X95274286Y-51383390D02*
X95321905Y-51192914D01*
X95321905Y-51192914D02*
X95369524Y-51097676D01*
X95369524Y-51097676D02*
X95464762Y-51002438D01*
X95464762Y-51002438D02*
X95607619Y-50954819D01*
X95607619Y-50954819D02*
X95702857Y-50954819D01*
X95702857Y-50954819D02*
X95845714Y-51002438D01*
X95845714Y-51002438D02*
X95893333Y-51050057D01*
X96512381Y-50954819D02*
X96607619Y-50954819D01*
X96607619Y-50954819D02*
X96702857Y-51002438D01*
X96702857Y-51002438D02*
X96750476Y-51050057D01*
X96750476Y-51050057D02*
X96798095Y-51145295D01*
X96798095Y-51145295D02*
X96845714Y-51335771D01*
X96845714Y-51335771D02*
X96845714Y-51573866D01*
X96845714Y-51573866D02*
X96798095Y-51764342D01*
X96798095Y-51764342D02*
X96750476Y-51859580D01*
X96750476Y-51859580D02*
X96702857Y-51907200D01*
X96702857Y-51907200D02*
X96607619Y-51954819D01*
X96607619Y-51954819D02*
X96512381Y-51954819D01*
X96512381Y-51954819D02*
X96417143Y-51907200D01*
X96417143Y-51907200D02*
X96369524Y-51859580D01*
X96369524Y-51859580D02*
X96321905Y-51764342D01*
X96321905Y-51764342D02*
X96274286Y-51573866D01*
X96274286Y-51573866D02*
X96274286Y-51335771D01*
X96274286Y-51335771D02*
X96321905Y-51145295D01*
X96321905Y-51145295D02*
X96369524Y-51050057D01*
X96369524Y-51050057D02*
X96417143Y-51002438D01*
X96417143Y-51002438D02*
X96512381Y-50954819D01*
X97750476Y-50954819D02*
X97274286Y-50954819D01*
X97274286Y-50954819D02*
X97226667Y-51431009D01*
X97226667Y-51431009D02*
X97274286Y-51383390D01*
X97274286Y-51383390D02*
X97369524Y-51335771D01*
X97369524Y-51335771D02*
X97607619Y-51335771D01*
X97607619Y-51335771D02*
X97702857Y-51383390D01*
X97702857Y-51383390D02*
X97750476Y-51431009D01*
X97750476Y-51431009D02*
X97798095Y-51526247D01*
X97798095Y-51526247D02*
X97798095Y-51764342D01*
X97798095Y-51764342D02*
X97750476Y-51859580D01*
X97750476Y-51859580D02*
X97702857Y-51907200D01*
X97702857Y-51907200D02*
X97607619Y-51954819D01*
X97607619Y-51954819D02*
X97369524Y-51954819D01*
X97369524Y-51954819D02*
X97274286Y-51907200D01*
X97274286Y-51907200D02*
X97226667Y-51859580D01*
X101117222Y-46215694D02*
X101117222Y-45215694D01*
X101117222Y-45215694D02*
X101450555Y-45929979D01*
X101450555Y-45929979D02*
X101783888Y-45215694D01*
X101783888Y-45215694D02*
X101783888Y-46215694D01*
X102402936Y-46215694D02*
X102307698Y-46168075D01*
X102307698Y-46168075D02*
X102260079Y-46120455D01*
X102260079Y-46120455D02*
X102212460Y-46025217D01*
X102212460Y-46025217D02*
X102212460Y-45739503D01*
X102212460Y-45739503D02*
X102260079Y-45644265D01*
X102260079Y-45644265D02*
X102307698Y-45596646D01*
X102307698Y-45596646D02*
X102402936Y-45549027D01*
X102402936Y-45549027D02*
X102545793Y-45549027D01*
X102545793Y-45549027D02*
X102641031Y-45596646D01*
X102641031Y-45596646D02*
X102688650Y-45644265D01*
X102688650Y-45644265D02*
X102736269Y-45739503D01*
X102736269Y-45739503D02*
X102736269Y-46025217D01*
X102736269Y-46025217D02*
X102688650Y-46120455D01*
X102688650Y-46120455D02*
X102641031Y-46168075D01*
X102641031Y-46168075D02*
X102545793Y-46215694D01*
X102545793Y-46215694D02*
X102402936Y-46215694D01*
X103593412Y-46215694D02*
X103593412Y-45215694D01*
X103593412Y-46168075D02*
X103498174Y-46215694D01*
X103498174Y-46215694D02*
X103307698Y-46215694D01*
X103307698Y-46215694D02*
X103212460Y-46168075D01*
X103212460Y-46168075D02*
X103164841Y-46120455D01*
X103164841Y-46120455D02*
X103117222Y-46025217D01*
X103117222Y-46025217D02*
X103117222Y-45739503D01*
X103117222Y-45739503D02*
X103164841Y-45644265D01*
X103164841Y-45644265D02*
X103212460Y-45596646D01*
X103212460Y-45596646D02*
X103307698Y-45549027D01*
X103307698Y-45549027D02*
X103498174Y-45549027D01*
X103498174Y-45549027D02*
X103593412Y-45596646D01*
X104450555Y-46168075D02*
X104355317Y-46215694D01*
X104355317Y-46215694D02*
X104164841Y-46215694D01*
X104164841Y-46215694D02*
X104069603Y-46168075D01*
X104069603Y-46168075D02*
X104021984Y-46072836D01*
X104021984Y-46072836D02*
X104021984Y-45691884D01*
X104021984Y-45691884D02*
X104069603Y-45596646D01*
X104069603Y-45596646D02*
X104164841Y-45549027D01*
X104164841Y-45549027D02*
X104355317Y-45549027D01*
X104355317Y-45549027D02*
X104450555Y-45596646D01*
X104450555Y-45596646D02*
X104498174Y-45691884D01*
X104498174Y-45691884D02*
X104498174Y-45787122D01*
X104498174Y-45787122D02*
X104021984Y-45882360D01*
X104266667Y-61532200D02*
X104409524Y-61579819D01*
X104409524Y-61579819D02*
X104647619Y-61579819D01*
X104647619Y-61579819D02*
X104742857Y-61532200D01*
X104742857Y-61532200D02*
X104790476Y-61484580D01*
X104790476Y-61484580D02*
X104838095Y-61389342D01*
X104838095Y-61389342D02*
X104838095Y-61294104D01*
X104838095Y-61294104D02*
X104790476Y-61198866D01*
X104790476Y-61198866D02*
X104742857Y-61151247D01*
X104742857Y-61151247D02*
X104647619Y-61103628D01*
X104647619Y-61103628D02*
X104457143Y-61056009D01*
X104457143Y-61056009D02*
X104361905Y-61008390D01*
X104361905Y-61008390D02*
X104314286Y-60960771D01*
X104314286Y-60960771D02*
X104266667Y-60865533D01*
X104266667Y-60865533D02*
X104266667Y-60770295D01*
X104266667Y-60770295D02*
X104314286Y-60675057D01*
X104314286Y-60675057D02*
X104361905Y-60627438D01*
X104361905Y-60627438D02*
X104457143Y-60579819D01*
X104457143Y-60579819D02*
X104695238Y-60579819D01*
X104695238Y-60579819D02*
X104838095Y-60627438D01*
X105171429Y-60579819D02*
X105409524Y-61579819D01*
X105409524Y-61579819D02*
X105600000Y-60865533D01*
X105600000Y-60865533D02*
X105790476Y-61579819D01*
X105790476Y-61579819D02*
X106028572Y-60579819D01*
X106361905Y-60675057D02*
X106409524Y-60627438D01*
X106409524Y-60627438D02*
X106504762Y-60579819D01*
X106504762Y-60579819D02*
X106742857Y-60579819D01*
X106742857Y-60579819D02*
X106838095Y-60627438D01*
X106838095Y-60627438D02*
X106885714Y-60675057D01*
X106885714Y-60675057D02*
X106933333Y-60770295D01*
X106933333Y-60770295D02*
X106933333Y-60865533D01*
X106933333Y-60865533D02*
X106885714Y-61008390D01*
X106885714Y-61008390D02*
X106314286Y-61579819D01*
X106314286Y-61579819D02*
X106933333Y-61579819D01*
X103858169Y-56861849D02*
X103858169Y-55861849D01*
X103858169Y-55861849D02*
X104191502Y-56576134D01*
X104191502Y-56576134D02*
X104524835Y-55861849D01*
X104524835Y-55861849D02*
X104524835Y-56861849D01*
X105143883Y-56861849D02*
X105048645Y-56814230D01*
X105048645Y-56814230D02*
X105001026Y-56766610D01*
X105001026Y-56766610D02*
X104953407Y-56671372D01*
X104953407Y-56671372D02*
X104953407Y-56385658D01*
X104953407Y-56385658D02*
X105001026Y-56290420D01*
X105001026Y-56290420D02*
X105048645Y-56242801D01*
X105048645Y-56242801D02*
X105143883Y-56195182D01*
X105143883Y-56195182D02*
X105286740Y-56195182D01*
X105286740Y-56195182D02*
X105381978Y-56242801D01*
X105381978Y-56242801D02*
X105429597Y-56290420D01*
X105429597Y-56290420D02*
X105477216Y-56385658D01*
X105477216Y-56385658D02*
X105477216Y-56671372D01*
X105477216Y-56671372D02*
X105429597Y-56766610D01*
X105429597Y-56766610D02*
X105381978Y-56814230D01*
X105381978Y-56814230D02*
X105286740Y-56861849D01*
X105286740Y-56861849D02*
X105143883Y-56861849D01*
X106334359Y-56861849D02*
X106334359Y-55861849D01*
X106334359Y-56814230D02*
X106239121Y-56861849D01*
X106239121Y-56861849D02*
X106048645Y-56861849D01*
X106048645Y-56861849D02*
X105953407Y-56814230D01*
X105953407Y-56814230D02*
X105905788Y-56766610D01*
X105905788Y-56766610D02*
X105858169Y-56671372D01*
X105858169Y-56671372D02*
X105858169Y-56385658D01*
X105858169Y-56385658D02*
X105905788Y-56290420D01*
X105905788Y-56290420D02*
X105953407Y-56242801D01*
X105953407Y-56242801D02*
X106048645Y-56195182D01*
X106048645Y-56195182D02*
X106239121Y-56195182D01*
X106239121Y-56195182D02*
X106334359Y-56242801D01*
X107191502Y-56814230D02*
X107096264Y-56861849D01*
X107096264Y-56861849D02*
X106905788Y-56861849D01*
X106905788Y-56861849D02*
X106810550Y-56814230D01*
X106810550Y-56814230D02*
X106762931Y-56718991D01*
X106762931Y-56718991D02*
X106762931Y-56338039D01*
X106762931Y-56338039D02*
X106810550Y-56242801D01*
X106810550Y-56242801D02*
X106905788Y-56195182D01*
X106905788Y-56195182D02*
X107096264Y-56195182D01*
X107096264Y-56195182D02*
X107191502Y-56242801D01*
X107191502Y-56242801D02*
X107239121Y-56338039D01*
X107239121Y-56338039D02*
X107239121Y-56433277D01*
X107239121Y-56433277D02*
X106762931Y-56528515D01*
X83066667Y-61532200D02*
X83209524Y-61579819D01*
X83209524Y-61579819D02*
X83447619Y-61579819D01*
X83447619Y-61579819D02*
X83542857Y-61532200D01*
X83542857Y-61532200D02*
X83590476Y-61484580D01*
X83590476Y-61484580D02*
X83638095Y-61389342D01*
X83638095Y-61389342D02*
X83638095Y-61294104D01*
X83638095Y-61294104D02*
X83590476Y-61198866D01*
X83590476Y-61198866D02*
X83542857Y-61151247D01*
X83542857Y-61151247D02*
X83447619Y-61103628D01*
X83447619Y-61103628D02*
X83257143Y-61056009D01*
X83257143Y-61056009D02*
X83161905Y-61008390D01*
X83161905Y-61008390D02*
X83114286Y-60960771D01*
X83114286Y-60960771D02*
X83066667Y-60865533D01*
X83066667Y-60865533D02*
X83066667Y-60770295D01*
X83066667Y-60770295D02*
X83114286Y-60675057D01*
X83114286Y-60675057D02*
X83161905Y-60627438D01*
X83161905Y-60627438D02*
X83257143Y-60579819D01*
X83257143Y-60579819D02*
X83495238Y-60579819D01*
X83495238Y-60579819D02*
X83638095Y-60627438D01*
X83971429Y-60579819D02*
X84209524Y-61579819D01*
X84209524Y-61579819D02*
X84400000Y-60865533D01*
X84400000Y-60865533D02*
X84590476Y-61579819D01*
X84590476Y-61579819D02*
X84828572Y-60579819D01*
X85733333Y-61579819D02*
X85161905Y-61579819D01*
X85447619Y-61579819D02*
X85447619Y-60579819D01*
X85447619Y-60579819D02*
X85352381Y-60722676D01*
X85352381Y-60722676D02*
X85257143Y-60817914D01*
X85257143Y-60817914D02*
X85161905Y-60865533D01*
X83077229Y-57009548D02*
X82743896Y-56533357D01*
X82505801Y-57009548D02*
X82505801Y-56009548D01*
X82505801Y-56009548D02*
X82886753Y-56009548D01*
X82886753Y-56009548D02*
X82981991Y-56057167D01*
X82981991Y-56057167D02*
X83029610Y-56104786D01*
X83029610Y-56104786D02*
X83077229Y-56200024D01*
X83077229Y-56200024D02*
X83077229Y-56342881D01*
X83077229Y-56342881D02*
X83029610Y-56438119D01*
X83029610Y-56438119D02*
X82981991Y-56485738D01*
X82981991Y-56485738D02*
X82886753Y-56533357D01*
X82886753Y-56533357D02*
X82505801Y-56533357D01*
X83886753Y-56961929D02*
X83791515Y-57009548D01*
X83791515Y-57009548D02*
X83601039Y-57009548D01*
X83601039Y-57009548D02*
X83505801Y-56961929D01*
X83505801Y-56961929D02*
X83458182Y-56866690D01*
X83458182Y-56866690D02*
X83458182Y-56485738D01*
X83458182Y-56485738D02*
X83505801Y-56390500D01*
X83505801Y-56390500D02*
X83601039Y-56342881D01*
X83601039Y-56342881D02*
X83791515Y-56342881D01*
X83791515Y-56342881D02*
X83886753Y-56390500D01*
X83886753Y-56390500D02*
X83934372Y-56485738D01*
X83934372Y-56485738D02*
X83934372Y-56580976D01*
X83934372Y-56580976D02*
X83458182Y-56676214D01*
X84315325Y-56961929D02*
X84410563Y-57009548D01*
X84410563Y-57009548D02*
X84601039Y-57009548D01*
X84601039Y-57009548D02*
X84696277Y-56961929D01*
X84696277Y-56961929D02*
X84743896Y-56866690D01*
X84743896Y-56866690D02*
X84743896Y-56819071D01*
X84743896Y-56819071D02*
X84696277Y-56723833D01*
X84696277Y-56723833D02*
X84601039Y-56676214D01*
X84601039Y-56676214D02*
X84458182Y-56676214D01*
X84458182Y-56676214D02*
X84362944Y-56628595D01*
X84362944Y-56628595D02*
X84315325Y-56533357D01*
X84315325Y-56533357D02*
X84315325Y-56485738D01*
X84315325Y-56485738D02*
X84362944Y-56390500D01*
X84362944Y-56390500D02*
X84458182Y-56342881D01*
X84458182Y-56342881D02*
X84601039Y-56342881D01*
X84601039Y-56342881D02*
X84696277Y-56390500D01*
X85553420Y-56961929D02*
X85458182Y-57009548D01*
X85458182Y-57009548D02*
X85267706Y-57009548D01*
X85267706Y-57009548D02*
X85172468Y-56961929D01*
X85172468Y-56961929D02*
X85124849Y-56866690D01*
X85124849Y-56866690D02*
X85124849Y-56485738D01*
X85124849Y-56485738D02*
X85172468Y-56390500D01*
X85172468Y-56390500D02*
X85267706Y-56342881D01*
X85267706Y-56342881D02*
X85458182Y-56342881D01*
X85458182Y-56342881D02*
X85553420Y-56390500D01*
X85553420Y-56390500D02*
X85601039Y-56485738D01*
X85601039Y-56485738D02*
X85601039Y-56580976D01*
X85601039Y-56580976D02*
X85124849Y-56676214D01*
X85886754Y-56342881D02*
X86267706Y-56342881D01*
X86029611Y-56009548D02*
X86029611Y-56866690D01*
X86029611Y-56866690D02*
X86077230Y-56961929D01*
X86077230Y-56961929D02*
X86172468Y-57009548D01*
X86172468Y-57009548D02*
X86267706Y-57009548D01*
D12*
%TO.C,Status*%
X85120000Y-44760000D02*
X85120000Y-39460000D01*
X85120000Y-44760000D02*
X89100000Y-44760000D01*
X88410000Y-39460000D02*
X85120000Y-39460000D01*
X88410000Y-39460000D02*
X89100000Y-40120000D01*
X89100000Y-44760000D02*
X89100000Y-40120000D01*
%TO.C,U2*%
X89850000Y-48202500D02*
X90690000Y-48202500D01*
X89850000Y-50962500D02*
X89850000Y-48202500D01*
X89850000Y-50962500D02*
X89850000Y-53722500D01*
X89850000Y-53722500D02*
X90690000Y-53722500D01*
X100270000Y-48202500D02*
X99430000Y-48202500D01*
X100270000Y-50962500D02*
X100270000Y-48202500D01*
X100270000Y-50962500D02*
X100270000Y-53722500D01*
X100270000Y-53722500D02*
X99430000Y-53722500D01*
X90690000Y-54512500D02*
X90360000Y-54752500D01*
X90360000Y-54272500D01*
X90690000Y-54512500D01*
G36*
X90690000Y-54512500D02*
G01*
X90360000Y-54752500D01*
X90360000Y-54272500D01*
X90690000Y-54512500D01*
G37*
%TO.C,Mode*%
X100870000Y-44760000D02*
X100870000Y-39460000D01*
X100870000Y-44760000D02*
X104850000Y-44760000D01*
X104160000Y-39460000D02*
X100870000Y-39460000D01*
X104160000Y-39460000D02*
X104850000Y-40120000D01*
X104850000Y-44760000D02*
X104850000Y-40120000D01*
%TO.C,SW2*%
X103150000Y-58675000D02*
X103200000Y-58675000D01*
X103150000Y-63575000D02*
X103150000Y-58675000D01*
X103150000Y-63575000D02*
X103200000Y-63575000D01*
X104850000Y-58675000D02*
X106350000Y-58675000D01*
X104850000Y-63575000D02*
X106350000Y-63575000D01*
X108050000Y-58675000D02*
X108000000Y-58675000D01*
X108050000Y-63575000D02*
X108000000Y-63575000D01*
X108050000Y-63575000D02*
X108050000Y-58675000D01*
%TO.C,SW1*%
X81950000Y-58675000D02*
X81950000Y-63575000D01*
X81950000Y-58675000D02*
X82000000Y-58675000D01*
X81950000Y-63575000D02*
X82000000Y-63575000D01*
X85150000Y-58675000D02*
X83650000Y-58675000D01*
X85150000Y-63575000D02*
X83650000Y-63575000D01*
X86850000Y-58675000D02*
X86800000Y-58675000D01*
X86850000Y-58675000D02*
X86850000Y-63575000D01*
X86850000Y-63575000D02*
X86800000Y-63575000D01*
%TO.C,J1*%
X88276667Y-63957500D02*
X88276667Y-67697500D01*
X101723333Y-63957500D02*
X88276667Y-63957500D01*
X101723333Y-67697500D02*
X101723333Y-63957500D01*
X101963333Y-63717500D02*
X97770000Y-63717500D01*
X101963333Y-65957500D02*
X101963333Y-63717500D01*
%TD*%
M02*
