%TF.GenerationSoftware,KiCad,Pcbnew,9.0.3*%
%TF.CreationDate,2026-02-22T22:03:45+00:00*%
%TF.ProjectId,AmiBLEHID,416d6942-4c45-4484-9944-2e6b69636164,rev?*%
%TF.SameCoordinates,Original*%
%TF.FileFunction,Copper,L2,Bot*%
%TF.FilePolarity,Positive*%
%FSLAX46Y46*%
G04 Gerber Fmt 4.6, Leading zero omitted, Abs format (unit mm)*
G04 Created by KiCad (PCBNEW 9.0.3) date 2026-02-22 22:03:45*
%MOMM*%
%LPD*%
G01*
G04 APERTURE LIST*
%TA.AperFunction,SMDPad,CuDef*%
%ADD10R,1.846667X3.480000*%
%TD*%
%TA.AperFunction,SMDPad,CuDef*%
%ADD11R,3.000000X1.500000*%
%TD*%
%TA.AperFunction,ViaPad*%
%ADD12C,0.600000*%
%TD*%
%TA.AperFunction,Conductor*%
%ADD13C,0.400000*%
%TD*%
%TA.AperFunction,Conductor*%
%ADD14C,0.200000*%
%TD*%
G04 APERTURE END LIST*
D10*
%TO.P,J1,6,6*%
%TO.N,Net-(J1-Pad6)*%
X99155000Y-65957500D03*
%TO.P,J1,7,7*%
%TO.N,+5V*%
X96385000Y-65957500D03*
%TO.P,J1,8,8*%
%TO.N,GND*%
X93615000Y-65957500D03*
%TO.P,J1,9,9*%
%TO.N,Net-(J1-Pad9)*%
X90845000Y-65957500D03*
%TD*%
D11*
%TO.P,U1,1,VCC*%
%TO.N,+5V*%
X103250000Y-39000000D03*
%TO.P,U1,2,GND*%
%TO.N,GND*%
X103250000Y-41540000D03*
%TO.P,U1,3,V3V*%
%TO.N,unconnected-(U1-V3V-Pad3)*%
X103250000Y-44080000D03*
%TO.P,U1,4,IO0*%
%TO.N,Net-(U1-IO0)*%
X103250000Y-46620000D03*
%TO.P,U1,5,IO1*%
%TO.N,Net-(U1-IO1)*%
X103250000Y-49160000D03*
%TO.P,U1,6,IO2*%
%TO.N,Net-(U1-IO2)*%
X103250000Y-51700000D03*
%TO.P,U1,7,IO3*%
%TO.N,Net-(U1-IO3)*%
X103250000Y-54240000D03*
%TO.P,U1,8,IO4*%
%TO.N,Net-(U1-IO4)*%
X103250000Y-56780000D03*
%TO.P,U1,9,IO5*%
%TO.N,Net-(U1-IO5)*%
X103250000Y-59320000D03*
%TO.P,U1,10,IO10*%
%TO.N,Net-(LED1-DIN)*%
X86760000Y-59320000D03*
%TO.P,U1,11,IO11*%
%TO.N,unconnected-(U1-IO11-Pad11)*%
X86760000Y-56780000D03*
%TO.P,U1,12,IO12*%
%TO.N,unconnected-(U1-IO12-Pad12)*%
X86760000Y-54240000D03*
%TO.P,U1,13,IO13*%
%TO.N,unconnected-(U1-IO13-Pad13)*%
X86760000Y-51700000D03*
%TO.P,U1,14,IO14*%
%TO.N,unconnected-(U1-IO14-Pad14)*%
X86760000Y-49160000D03*
%TO.P,U1,15,IO22*%
%TO.N,Net-(SW1-A)*%
X86760000Y-46620000D03*
%TO.P,U1,16,IO25*%
%TO.N,Net-(SW2-A)*%
X86760000Y-44080000D03*
%TO.P,U1,17,RX*%
%TO.N,unconnected-(U1-RX-Pad17)*%
X86760000Y-41540000D03*
%TO.P,U1,18,TX*%
%TO.N,unconnected-(U1-TX-Pad18)*%
X86760000Y-39000000D03*
%TD*%
D12*
%TO.N,+5V*%
X90000000Y-55500000D03*
X99500000Y-40500000D03*
%TO.N,GND*%
X105581907Y-40521612D03*
X83454962Y-48012625D03*
X98500000Y-39000000D03*
X84250000Y-61250000D03*
X105693448Y-63733235D03*
X96775947Y-41563359D03*
X91250000Y-50000000D03*
%TO.N,Net-(LED1-DIN)*%
X84250000Y-51750000D03*
%TO.N,Net-(SW1-A)*%
X89000000Y-46620000D03*
%TO.N,Net-(SW2-A)*%
X99250000Y-44750000D03*
X106500000Y-56250000D03*
X106500000Y-54250000D03*
%TO.N,Net-(U1-IO3)*%
X101250000Y-53500000D03*
%TO.N,Net-(U1-IO0)*%
X93500000Y-52000000D03*
%TO.N,Net-(U1-IO4)*%
X95500000Y-49500000D03*
%TO.N,Net-(U1-IO5)*%
X92500000Y-44000000D03*
%TO.N,Net-(U1-IO2)*%
X96409445Y-53199999D03*
%TO.N,Net-(U1-IO1)*%
X95000000Y-52600000D03*
%TO.N,Net-(J1-Pad1)*%
X98500000Y-56500000D03*
X97000000Y-56500000D03*
%TO.N,Net-(J1-Pad6)*%
X100500000Y-54250000D03*
%TO.N,Net-(J1-Pad4)*%
X89000000Y-55500000D03*
X89000000Y-61250000D03*
X93750000Y-45500000D03*
X90000000Y-45500000D03*
%TO.N,Net-(J1-Pad2)*%
X99000000Y-63000000D03*
X99256386Y-55871094D03*
X101000000Y-63000000D03*
X95096521Y-55853735D03*
%TO.N,Net-(J1-Pad9)*%
X93750000Y-50750000D03*
X91750000Y-56500000D03*
X87750000Y-62750000D03*
%TD*%
D13*
%TO.N,+5V*%
X90000000Y-62000000D02*
X90250000Y-62250000D01*
X90000000Y-55500000D02*
X90000000Y-62000000D01*
X95750000Y-62250000D02*
X96385000Y-62885000D01*
X96385000Y-62885000D02*
X96385000Y-65957500D01*
X90250000Y-62250000D02*
X95750000Y-62250000D01*
X103250000Y-39000000D02*
X100000000Y-39000000D01*
X99500000Y-39500000D02*
X99500000Y-40500000D01*
X100000000Y-39000000D02*
X99500000Y-39500000D01*
%TO.N,GND*%
X89175529Y-47925529D02*
X91250000Y-50000000D01*
X87500000Y-61250000D02*
X84250000Y-61250000D01*
X98500000Y-41000000D02*
X98500000Y-39000000D01*
X103250000Y-41540000D02*
X99040000Y-41540000D01*
X89500000Y-63250000D02*
X87500000Y-61250000D01*
X93500000Y-63250000D02*
X89500000Y-63250000D01*
X93615000Y-63365000D02*
X93500000Y-63250000D01*
X83542058Y-47925529D02*
X89175529Y-47925529D01*
X96799306Y-41540000D02*
X96775947Y-41563359D01*
X98750000Y-41250000D02*
X98500000Y-41000000D01*
X99040000Y-41540000D02*
X96799306Y-41540000D01*
X99040000Y-41540000D02*
X98750000Y-41250000D01*
X93615000Y-65957500D02*
X93615000Y-63365000D01*
X83454962Y-48012625D02*
X83542058Y-47925529D01*
D14*
%TO.N,Net-(LED1-DIN)*%
X86010000Y-59320000D02*
X84250000Y-57560000D01*
X86760000Y-59320000D02*
X86010000Y-59320000D01*
X84250000Y-57560000D02*
X84250000Y-51750000D01*
%TO.N,Net-(SW1-A)*%
X86010000Y-46620000D02*
X89000000Y-46620000D01*
%TO.N,Net-(SW2-A)*%
X106500000Y-54250000D02*
X106500000Y-56250000D01*
X91500000Y-44750000D02*
X99250000Y-44750000D01*
X86760000Y-44080000D02*
X90830000Y-44080000D01*
X90830000Y-44080000D02*
X91500000Y-44750000D01*
%TO.N,Net-(U1-IO3)*%
X103250000Y-54240000D02*
X101990000Y-54240000D01*
X101990000Y-54240000D02*
X101250000Y-53500000D01*
%TO.N,Net-(U1-IO0)*%
X101380000Y-46620000D02*
X103250000Y-46620000D01*
X93500000Y-52000000D02*
X100000000Y-52000000D01*
X100500000Y-51500000D02*
X100500000Y-47500000D01*
X100500000Y-47500000D02*
X101380000Y-46620000D01*
X100000000Y-52000000D02*
X100500000Y-51500000D01*
%TO.N,Net-(U1-IO4)*%
X103250000Y-56780000D02*
X104470000Y-56780000D01*
X104470000Y-56780000D02*
X105250000Y-56000000D01*
X105250000Y-45500000D02*
X101500000Y-45500000D01*
X99750000Y-48750000D02*
X99000000Y-49500000D01*
X105250000Y-56000000D02*
X105250000Y-45500000D01*
X99750000Y-47250000D02*
X99750000Y-48750000D01*
X99000000Y-49500000D02*
X95500000Y-49500000D01*
X101500000Y-45500000D02*
X99750000Y-47250000D01*
%TO.N,Net-(U1-IO5)*%
X105750000Y-58250000D02*
X105750000Y-43250000D01*
X104680000Y-59320000D02*
X105750000Y-58250000D01*
X105500000Y-43000000D02*
X93500000Y-43000000D01*
X105750000Y-43250000D02*
X105500000Y-43000000D01*
X93500000Y-43000000D02*
X92500000Y-44000000D01*
X103250000Y-59320000D02*
X104680000Y-59320000D01*
%TO.N,Net-(U1-IO2)*%
X101805001Y-51700000D02*
X100389048Y-53115953D01*
X103250000Y-51700000D02*
X101805001Y-51700000D01*
X96493491Y-53115953D02*
X96409445Y-53199999D01*
X100389048Y-53115953D02*
X96493491Y-53115953D01*
%TO.N,Net-(U1-IO1)*%
X101840000Y-49160000D02*
X103250000Y-49160000D01*
X101000000Y-50000000D02*
X101840000Y-49160000D01*
X101000000Y-51750000D02*
X101000000Y-50000000D01*
X100150000Y-52600000D02*
X101000000Y-51750000D01*
X95000000Y-52600000D02*
X100150000Y-52600000D01*
%TO.N,Net-(J1-Pad1)*%
X98500000Y-56500000D02*
X97000000Y-56500000D01*
%TO.N,Net-(J1-Pad6)*%
X99155000Y-65957500D02*
X100792500Y-65957500D01*
X100792500Y-65957500D02*
X102500000Y-64250000D01*
X102500000Y-64250000D02*
X102500000Y-62250000D01*
X100500000Y-60250000D02*
X100500000Y-54250000D01*
X102500000Y-62250000D02*
X100500000Y-60250000D01*
%TO.N,Net-(J1-Pad4)*%
X89000000Y-55500000D02*
X89000000Y-61250000D01*
X93750000Y-45500000D02*
X90000000Y-45500000D01*
%TO.N,Net-(J1-Pad2)*%
X99256386Y-55871094D02*
X99239027Y-55853735D01*
X99000000Y-63000000D02*
X101000000Y-63000000D01*
X99239027Y-55853735D02*
X95096521Y-55853735D01*
%TO.N,Net-(J1-Pad9)*%
X90845000Y-65957500D02*
X87750000Y-62862500D01*
X91750000Y-52750000D02*
X93750000Y-50750000D01*
X91750000Y-56500000D02*
X91750000Y-52750000D01*
X87750000Y-62862500D02*
X87750000Y-62750000D01*
%TD*%
%TA.AperFunction,Conductor*%
%TO.N,GND*%
G36*
X84710171Y-38020185D02*
G01*
X84755926Y-38072989D01*
X84766421Y-38137756D01*
X84759500Y-38202118D01*
X84759500Y-39797870D01*
X84759501Y-39797876D01*
X84765908Y-39857483D01*
X84816202Y-39992328D01*
X84816206Y-39992335D01*
X84902452Y-40107544D01*
X84902455Y-40107547D01*
X84986861Y-40170734D01*
X85028732Y-40226668D01*
X85033716Y-40296359D01*
X85000230Y-40357682D01*
X84986861Y-40369266D01*
X84902455Y-40432452D01*
X84902452Y-40432455D01*
X84816206Y-40547664D01*
X84816202Y-40547671D01*
X84765908Y-40682517D01*
X84760428Y-40733497D01*
X84759501Y-40742123D01*
X84759500Y-40742135D01*
X84759500Y-42337870D01*
X84759501Y-42337876D01*
X84765908Y-42397483D01*
X84816202Y-42532328D01*
X84816206Y-42532335D01*
X84902452Y-42647544D01*
X84902455Y-42647547D01*
X84986861Y-42710734D01*
X85028732Y-42766668D01*
X85033716Y-42836359D01*
X85000230Y-42897682D01*
X84986861Y-42909266D01*
X84902455Y-42972452D01*
X84902452Y-42972455D01*
X84816206Y-43087664D01*
X84816202Y-43087671D01*
X84765908Y-43222517D01*
X84759501Y-43282116D01*
X84759501Y-43282123D01*
X84759500Y-43282135D01*
X84759500Y-44877870D01*
X84759501Y-44877876D01*
X84765908Y-44937483D01*
X84816202Y-45072328D01*
X84816206Y-45072335D01*
X84902452Y-45187544D01*
X84902455Y-45187547D01*
X84986861Y-45250734D01*
X85028732Y-45306668D01*
X85033716Y-45376359D01*
X85000230Y-45437682D01*
X84986861Y-45449266D01*
X84902455Y-45512452D01*
X84902452Y-45512455D01*
X84816206Y-45627664D01*
X84816202Y-45627671D01*
X84765908Y-45762517D01*
X84759501Y-45822116D01*
X84759500Y-45822135D01*
X84759500Y-47417870D01*
X84759501Y-47417876D01*
X84765908Y-47477483D01*
X84816202Y-47612328D01*
X84816206Y-47612335D01*
X84902452Y-47727544D01*
X84902455Y-47727547D01*
X84986861Y-47790734D01*
X85028732Y-47846668D01*
X85033716Y-47916359D01*
X85000230Y-47977682D01*
X84986861Y-47989266D01*
X84902455Y-48052452D01*
X84902452Y-48052455D01*
X84816206Y-48167664D01*
X84816202Y-48167671D01*
X84765908Y-48302517D01*
X84759501Y-48362116D01*
X84759501Y-48362123D01*
X84759500Y-48362135D01*
X84759500Y-49957870D01*
X84759501Y-49957876D01*
X84765908Y-50017483D01*
X84816202Y-50152328D01*
X84816206Y-50152335D01*
X84902452Y-50267544D01*
X84902455Y-50267547D01*
X84986861Y-50330734D01*
X85028732Y-50386668D01*
X85033716Y-50456359D01*
X85000230Y-50517682D01*
X84986861Y-50529266D01*
X84902455Y-50592452D01*
X84902452Y-50592455D01*
X84816206Y-50707664D01*
X84816202Y-50707671D01*
X84765908Y-50842517D01*
X84759501Y-50902116D01*
X84759501Y-50902123D01*
X84759500Y-50902135D01*
X84759500Y-50909007D01*
X84739815Y-50976046D01*
X84687011Y-51021801D01*
X84617853Y-51031745D01*
X84588048Y-51023569D01*
X84578158Y-51019472D01*
X84483497Y-50980263D01*
X84483492Y-50980262D01*
X84483489Y-50980261D01*
X84328845Y-50949500D01*
X84328842Y-50949500D01*
X84171158Y-50949500D01*
X84171155Y-50949500D01*
X84016510Y-50980261D01*
X84016498Y-50980264D01*
X83870827Y-51040602D01*
X83870814Y-51040609D01*
X83739711Y-51128210D01*
X83739707Y-51128213D01*
X83628213Y-51239707D01*
X83628210Y-51239711D01*
X83540609Y-51370814D01*
X83540602Y-51370827D01*
X83480264Y-51516498D01*
X83480261Y-51516510D01*
X83449500Y-51671153D01*
X83449500Y-51828846D01*
X83480261Y-51983489D01*
X83480264Y-51983501D01*
X83540602Y-52129172D01*
X83540609Y-52129185D01*
X83628602Y-52260874D01*
X83649480Y-52327551D01*
X83649500Y-52329765D01*
X83649500Y-57473330D01*
X83649499Y-57473348D01*
X83649499Y-57639054D01*
X83649498Y-57639054D01*
X83690423Y-57791785D01*
X83719358Y-57841900D01*
X83719359Y-57841904D01*
X83719360Y-57841904D01*
X83769479Y-57928714D01*
X83769481Y-57928717D01*
X83888349Y-58047585D01*
X83888355Y-58047590D01*
X84723181Y-58882416D01*
X84756666Y-58943739D01*
X84759500Y-58970097D01*
X84759500Y-60117870D01*
X84759501Y-60117876D01*
X84765908Y-60177483D01*
X84816202Y-60312328D01*
X84816206Y-60312335D01*
X84902452Y-60427544D01*
X84902455Y-60427547D01*
X85017664Y-60513793D01*
X85017671Y-60513797D01*
X85152517Y-60564091D01*
X85152516Y-60564091D01*
X85159444Y-60564835D01*
X85212127Y-60570500D01*
X88259286Y-60570499D01*
X88326325Y-60590184D01*
X88372080Y-60642988D01*
X88382024Y-60712146D01*
X88362388Y-60763389D01*
X88290612Y-60870809D01*
X88290602Y-60870827D01*
X88230264Y-61016498D01*
X88230261Y-61016510D01*
X88199500Y-61171153D01*
X88199500Y-61328846D01*
X88230261Y-61483489D01*
X88230264Y-61483501D01*
X88290602Y-61629172D01*
X88290609Y-61629185D01*
X88378210Y-61760288D01*
X88378213Y-61760292D01*
X88489707Y-61871786D01*
X88489711Y-61871789D01*
X88620814Y-61959390D01*
X88620827Y-61959397D01*
X88766498Y-62019735D01*
X88766503Y-62019737D01*
X88921153Y-62050499D01*
X88921156Y-62050500D01*
X88921158Y-62050500D01*
X89078843Y-62050500D01*
X89134640Y-62039401D01*
X89165944Y-62033174D01*
X89235535Y-62039401D01*
X89290713Y-62082263D01*
X89311753Y-62130598D01*
X89326418Y-62204323D01*
X89326421Y-62204332D01*
X89379222Y-62331807D01*
X89411300Y-62379815D01*
X89455886Y-62446543D01*
X89705886Y-62696542D01*
X89771747Y-62762403D01*
X89803459Y-62794115D01*
X89918182Y-62870771D01*
X89918186Y-62870773D01*
X89918189Y-62870775D01*
X89992866Y-62901707D01*
X90045671Y-62923580D01*
X90072591Y-62928934D01*
X90169630Y-62948237D01*
X90181006Y-62950500D01*
X90181007Y-62950500D01*
X95408481Y-62950500D01*
X95437921Y-62959144D01*
X95467908Y-62965668D01*
X95472923Y-62969422D01*
X95475520Y-62970185D01*
X95496162Y-62986819D01*
X95648181Y-63138838D01*
X95681666Y-63200161D01*
X95684500Y-63226519D01*
X95684500Y-63593000D01*
X95664815Y-63660039D01*
X95612011Y-63705794D01*
X95560501Y-63717000D01*
X95413796Y-63717000D01*
X95413789Y-63717001D01*
X95354182Y-63723408D01*
X95219337Y-63773702D01*
X95219330Y-63773706D01*
X95104121Y-63859952D01*
X95104117Y-63859956D01*
X95098949Y-63866860D01*
X95043013Y-63908728D01*
X94973321Y-63913707D01*
X94912000Y-63880218D01*
X94900419Y-63866852D01*
X94895521Y-63860309D01*
X94780427Y-63774149D01*
X94780420Y-63774145D01*
X94645713Y-63723903D01*
X94645706Y-63723901D01*
X94586178Y-63717500D01*
X93865000Y-63717500D01*
X93865000Y-65833500D01*
X93845315Y-65900539D01*
X93792511Y-65946294D01*
X93741000Y-65957500D01*
X93489000Y-65957500D01*
X93421961Y-65937815D01*
X93376206Y-65885011D01*
X93365000Y-65833500D01*
X93365000Y-63717500D01*
X92643821Y-63717500D01*
X92584293Y-63723901D01*
X92584286Y-63723903D01*
X92449579Y-63774145D01*
X92449572Y-63774149D01*
X92334479Y-63860309D01*
X92329577Y-63866857D01*
X92273642Y-63908726D01*
X92203950Y-63913708D01*
X92142628Y-63880221D01*
X92131047Y-63866856D01*
X92125879Y-63859953D01*
X92125878Y-63859952D01*
X92010669Y-63773706D01*
X92010662Y-63773702D01*
X91875816Y-63723408D01*
X91875817Y-63723408D01*
X91816217Y-63717001D01*
X91816215Y-63717000D01*
X91816207Y-63717000D01*
X91816198Y-63717000D01*
X89873795Y-63717000D01*
X89873789Y-63717001D01*
X89814182Y-63723408D01*
X89679337Y-63773702D01*
X89679335Y-63773703D01*
X89668759Y-63781621D01*
X89603295Y-63806037D01*
X89535022Y-63791184D01*
X89506769Y-63770034D01*
X88586819Y-62850084D01*
X88553334Y-62788761D01*
X88550500Y-62762403D01*
X88550500Y-62671155D01*
X88550499Y-62671153D01*
X88525229Y-62544113D01*
X88519737Y-62516503D01*
X88512377Y-62498735D01*
X88459397Y-62370827D01*
X88459390Y-62370814D01*
X88371789Y-62239711D01*
X88371786Y-62239707D01*
X88260292Y-62128213D01*
X88260288Y-62128210D01*
X88129185Y-62040609D01*
X88129172Y-62040602D01*
X87983501Y-61980264D01*
X87983489Y-61980261D01*
X87828845Y-61949500D01*
X87828842Y-61949500D01*
X87671158Y-61949500D01*
X87671155Y-61949500D01*
X87516510Y-61980261D01*
X87516498Y-61980264D01*
X87370827Y-62040602D01*
X87370814Y-62040609D01*
X87239711Y-62128210D01*
X87239707Y-62128213D01*
X87128213Y-62239707D01*
X87128210Y-62239711D01*
X87040609Y-62370814D01*
X87040602Y-62370827D01*
X86980264Y-62516498D01*
X86980261Y-62516510D01*
X86949500Y-62671153D01*
X86949500Y-62828846D01*
X86980261Y-62983489D01*
X86980264Y-62983501D01*
X87040602Y-63129172D01*
X87040609Y-63129185D01*
X87128210Y-63260288D01*
X87128213Y-63260292D01*
X87239707Y-63371786D01*
X87239711Y-63371789D01*
X87370814Y-63459390D01*
X87370827Y-63459397D01*
X87458230Y-63495599D01*
X87516503Y-63519737D01*
X87531415Y-63522703D01*
X87593324Y-63555087D01*
X87594904Y-63556639D01*
X89384847Y-65346582D01*
X89418332Y-65407905D01*
X89421166Y-65434263D01*
X89421166Y-66438020D01*
X89421167Y-67375500D01*
X89401482Y-67442539D01*
X89348679Y-67488294D01*
X89297167Y-67499500D01*
X87030041Y-67499500D01*
X86994449Y-67495212D01*
X86964433Y-67499500D01*
X86934104Y-67499500D01*
X86906668Y-67506852D01*
X86892116Y-67509830D01*
X86863990Y-67513848D01*
X86863987Y-67513849D01*
X86844204Y-67522299D01*
X86827602Y-67528037D01*
X86806809Y-67533609D01*
X86782211Y-67547810D01*
X86782212Y-67547811D01*
X86775763Y-67551533D01*
X86742798Y-67565616D01*
X86718945Y-67584338D01*
X86711317Y-67588743D01*
X86711314Y-67588743D01*
X86692687Y-67599498D01*
X86692684Y-67599501D01*
X86672593Y-67619590D01*
X86661484Y-67629441D01*
X86639136Y-67646983D01*
X86639135Y-67646985D01*
X86626230Y-67664192D01*
X86620940Y-67671245D01*
X86599500Y-67692686D01*
X86581576Y-67723728D01*
X86577112Y-67729681D01*
X85126228Y-69664194D01*
X85114713Y-69677471D01*
X85099500Y-69692684D01*
X85085288Y-69717299D01*
X85081567Y-69723743D01*
X85060065Y-69752414D01*
X85048775Y-69780537D01*
X85044367Y-69788174D01*
X85044367Y-69788176D01*
X85033610Y-69806809D01*
X85033606Y-69806818D01*
X85026254Y-69834252D01*
X85026255Y-69834253D01*
X85024328Y-69841445D01*
X85010975Y-69874714D01*
X85007348Y-69904812D01*
X85005067Y-69913328D01*
X84999500Y-69934104D01*
X84999500Y-69962514D01*
X84998610Y-69977345D01*
X84995212Y-70005549D01*
X84998254Y-70026844D01*
X84999500Y-70044380D01*
X84999500Y-71875500D01*
X84979815Y-71942539D01*
X84927011Y-71988294D01*
X84875500Y-71999500D01*
X80209934Y-71999500D01*
X80142895Y-71979815D01*
X80097140Y-71927011D01*
X80086946Y-71859687D01*
X81135303Y-63705794D01*
X84426359Y-38108686D01*
X84426745Y-38107805D01*
X84426609Y-38106853D01*
X84440745Y-38075898D01*
X84454432Y-38044705D01*
X84455234Y-38044172D01*
X84455634Y-38043297D01*
X84484281Y-38024886D01*
X84512640Y-38006058D01*
X84513869Y-38005871D01*
X84514412Y-38005523D01*
X84549347Y-38000500D01*
X84643132Y-38000500D01*
X84710171Y-38020185D01*
G37*
%TD.AperFunction*%
%TA.AperFunction,Conductor*%
G36*
X106555703Y-45994043D02*
G01*
X106593477Y-46052821D01*
X106597486Y-46071936D01*
X109352344Y-67498610D01*
X109913054Y-71859687D01*
X109902079Y-71928690D01*
X109855541Y-71980805D01*
X109790066Y-71999500D01*
X105124500Y-71999500D01*
X105057461Y-71979815D01*
X105011706Y-71927011D01*
X105000500Y-71875500D01*
X105000500Y-70035567D01*
X105004788Y-70005551D01*
X105000500Y-69969959D01*
X105000500Y-69934108D01*
X104994932Y-69913330D01*
X104991598Y-69896077D01*
X104989025Y-69874714D01*
X104975671Y-69841445D01*
X104966392Y-69806814D01*
X104951228Y-69780550D01*
X104939935Y-69752414D01*
X104933372Y-69743664D01*
X104922890Y-69729686D01*
X104914705Y-69717289D01*
X104900502Y-69692689D01*
X104900498Y-69692684D01*
X104885289Y-69677475D01*
X104873770Y-69664194D01*
X104001000Y-68500500D01*
X103418424Y-67723731D01*
X103400500Y-67692686D01*
X103379059Y-67671245D01*
X103360865Y-67646986D01*
X103360863Y-67646985D01*
X103360863Y-67646984D01*
X103338510Y-67629438D01*
X103338510Y-67629437D01*
X103332656Y-67624842D01*
X103307314Y-67599500D01*
X103281058Y-67584341D01*
X103274122Y-67578897D01*
X103266666Y-67573045D01*
X103257202Y-67565616D01*
X103257199Y-67565615D01*
X103257197Y-67565613D01*
X103231078Y-67554457D01*
X103231079Y-67554457D01*
X103224233Y-67551533D01*
X103193186Y-67533608D01*
X103163896Y-67525759D01*
X103155794Y-67522298D01*
X103155792Y-67522296D01*
X103136020Y-67513851D01*
X103136012Y-67513849D01*
X103136010Y-67513848D01*
X103136007Y-67513848D01*
X103107890Y-67509830D01*
X103107890Y-67509831D01*
X103100517Y-67508777D01*
X103065892Y-67499500D01*
X103035569Y-67499500D01*
X103026846Y-67498254D01*
X103005551Y-67495212D01*
X102977345Y-67498610D01*
X102962515Y-67499500D01*
X100702834Y-67499500D01*
X100635795Y-67479815D01*
X100590040Y-67427011D01*
X100578834Y-67375500D01*
X100578834Y-66682000D01*
X100581384Y-66673314D01*
X100580096Y-66664353D01*
X100591074Y-66640312D01*
X100598519Y-66614961D01*
X100605359Y-66609033D01*
X100609121Y-66600797D01*
X100631355Y-66586507D01*
X100651323Y-66569206D01*
X100661837Y-66566918D01*
X100667899Y-66563023D01*
X100702834Y-66558000D01*
X100705831Y-66558000D01*
X100705847Y-66558001D01*
X100713443Y-66558001D01*
X100871554Y-66558001D01*
X100871557Y-66558001D01*
X101024285Y-66517077D01*
X101074404Y-66488139D01*
X101161216Y-66438020D01*
X101273020Y-66326216D01*
X101273020Y-66326214D01*
X101283228Y-66316007D01*
X101283229Y-66316004D01*
X102980520Y-64618716D01*
X103059577Y-64481784D01*
X103100501Y-64329057D01*
X103100501Y-64170942D01*
X103100501Y-64163347D01*
X103100500Y-64163329D01*
X103100500Y-62170945D01*
X103100500Y-62170943D01*
X103073183Y-62068993D01*
X103059577Y-62018215D01*
X103019904Y-61949500D01*
X102980520Y-61881284D01*
X102868716Y-61769480D01*
X102864385Y-61765149D01*
X102864374Y-61765139D01*
X101881415Y-60782180D01*
X101847930Y-60720857D01*
X101852914Y-60651165D01*
X101894786Y-60595232D01*
X101960250Y-60570815D01*
X101969070Y-60570499D01*
X104797872Y-60570499D01*
X104857483Y-60564091D01*
X104992331Y-60513796D01*
X105107546Y-60427546D01*
X105193796Y-60312331D01*
X105244091Y-60177483D01*
X105250500Y-60117873D01*
X105250499Y-59650095D01*
X105270183Y-59583057D01*
X105286813Y-59562420D01*
X106230520Y-58618716D01*
X106309577Y-58481784D01*
X106350501Y-58329057D01*
X106350501Y-58170942D01*
X106350501Y-58163347D01*
X106350500Y-58163329D01*
X106350500Y-57174500D01*
X106370185Y-57107461D01*
X106422989Y-57061706D01*
X106474500Y-57050500D01*
X106578844Y-57050500D01*
X106578845Y-57050499D01*
X106733497Y-57019737D01*
X106879179Y-56959394D01*
X107010289Y-56871789D01*
X107121789Y-56760289D01*
X107209394Y-56629179D01*
X107211758Y-56623473D01*
X107230244Y-56578842D01*
X107269737Y-56483497D01*
X107300500Y-56328842D01*
X107300500Y-56171158D01*
X107300500Y-56171155D01*
X107300499Y-56171153D01*
X107269738Y-56016510D01*
X107269737Y-56016503D01*
X107269735Y-56016498D01*
X107209397Y-55870827D01*
X107209390Y-55870814D01*
X107121398Y-55739125D01*
X107100520Y-55672447D01*
X107100500Y-55670234D01*
X107100500Y-54829765D01*
X107120185Y-54762726D01*
X107121398Y-54760874D01*
X107209390Y-54629185D01*
X107209390Y-54629184D01*
X107209394Y-54629179D01*
X107269737Y-54483497D01*
X107300500Y-54328842D01*
X107300500Y-54171158D01*
X107300500Y-54171155D01*
X107300499Y-54171153D01*
X107269738Y-54016510D01*
X107269737Y-54016503D01*
X107250365Y-53969734D01*
X107209397Y-53870827D01*
X107209390Y-53870814D01*
X107121789Y-53739711D01*
X107121786Y-53739707D01*
X107010292Y-53628213D01*
X107010288Y-53628210D01*
X106879185Y-53540609D01*
X106879172Y-53540602D01*
X106733501Y-53480264D01*
X106733489Y-53480261D01*
X106578845Y-53449500D01*
X106578842Y-53449500D01*
X106474500Y-53449500D01*
X106407461Y-53429815D01*
X106361706Y-53377011D01*
X106350500Y-53325500D01*
X106350500Y-46087756D01*
X106370185Y-46020717D01*
X106422989Y-45974962D01*
X106492147Y-45965018D01*
X106555703Y-45994043D01*
G37*
%TD.AperFunction*%
%TA.AperFunction,Conductor*%
G36*
X101192539Y-43620185D02*
G01*
X101238294Y-43672989D01*
X101249500Y-43724500D01*
X101249500Y-44879635D01*
X101229815Y-44946674D01*
X101187502Y-44987021D01*
X101131287Y-45019478D01*
X101131281Y-45019482D01*
X99269481Y-46881282D01*
X99269479Y-46881285D01*
X99219361Y-46968094D01*
X99219359Y-46968096D01*
X99190425Y-47018209D01*
X99190424Y-47018210D01*
X99190423Y-47018215D01*
X99149499Y-47170943D01*
X99149499Y-47170945D01*
X99149499Y-47339046D01*
X99149500Y-47339059D01*
X99149500Y-48449903D01*
X99129815Y-48516942D01*
X99113181Y-48537584D01*
X98787584Y-48863181D01*
X98726261Y-48896666D01*
X98699903Y-48899500D01*
X96079766Y-48899500D01*
X96012727Y-48879815D01*
X96010875Y-48878602D01*
X95879185Y-48790609D01*
X95879172Y-48790602D01*
X95733501Y-48730264D01*
X95733489Y-48730261D01*
X95578845Y-48699500D01*
X95578842Y-48699500D01*
X95421158Y-48699500D01*
X95421155Y-48699500D01*
X95266510Y-48730261D01*
X95266498Y-48730264D01*
X95120827Y-48790602D01*
X95120814Y-48790609D01*
X94989711Y-48878210D01*
X94989707Y-48878213D01*
X94878213Y-48989707D01*
X94878210Y-48989711D01*
X94790609Y-49120814D01*
X94790602Y-49120827D01*
X94730264Y-49266498D01*
X94730261Y-49266510D01*
X94699500Y-49421153D01*
X94699500Y-49578846D01*
X94730261Y-49733489D01*
X94730264Y-49733501D01*
X94790602Y-49879172D01*
X94790609Y-49879185D01*
X94878210Y-50010288D01*
X94878213Y-50010292D01*
X94989707Y-50121786D01*
X94989711Y-50121789D01*
X95120814Y-50209390D01*
X95120827Y-50209397D01*
X95261213Y-50267546D01*
X95266503Y-50269737D01*
X95421153Y-50300499D01*
X95421156Y-50300500D01*
X95421158Y-50300500D01*
X95578844Y-50300500D01*
X95578845Y-50300499D01*
X95733497Y-50269737D01*
X95879179Y-50209394D01*
X95964580Y-50152331D01*
X96010875Y-50121398D01*
X96077553Y-50100520D01*
X96079766Y-50100500D01*
X98913331Y-50100500D01*
X98913347Y-50100501D01*
X98920943Y-50100501D01*
X99079054Y-50100501D01*
X99079057Y-50100501D01*
X99231785Y-50059577D01*
X99281904Y-50030639D01*
X99368716Y-49980520D01*
X99480520Y-49868716D01*
X99480520Y-49868714D01*
X99490728Y-49858507D01*
X99490729Y-49858504D01*
X99687820Y-49661414D01*
X99749142Y-49627930D01*
X99818834Y-49632914D01*
X99874767Y-49674786D01*
X99899184Y-49740250D01*
X99899500Y-49749096D01*
X99899500Y-51199901D01*
X99890856Y-51229337D01*
X99884333Y-51259327D01*
X99880577Y-51264344D01*
X99879815Y-51266940D01*
X99863182Y-51287582D01*
X99787584Y-51363181D01*
X99726261Y-51396666D01*
X99699902Y-51399500D01*
X94510759Y-51399500D01*
X94443720Y-51379815D01*
X94397965Y-51327011D01*
X94388021Y-51257853D01*
X94407657Y-51206609D01*
X94416194Y-51193831D01*
X94459394Y-51129179D01*
X94519737Y-50983497D01*
X94550500Y-50828842D01*
X94550500Y-50671158D01*
X94550500Y-50671155D01*
X94550499Y-50671153D01*
X94534845Y-50592455D01*
X94519737Y-50516503D01*
X94501856Y-50473333D01*
X94459397Y-50370827D01*
X94459390Y-50370814D01*
X94371789Y-50239711D01*
X94371786Y-50239707D01*
X94260292Y-50128213D01*
X94260288Y-50128210D01*
X94129185Y-50040609D01*
X94129172Y-50040602D01*
X93983501Y-49980264D01*
X93983489Y-49980261D01*
X93828845Y-49949500D01*
X93828842Y-49949500D01*
X93671158Y-49949500D01*
X93671155Y-49949500D01*
X93516510Y-49980261D01*
X93516498Y-49980264D01*
X93370827Y-50040602D01*
X93370814Y-50040609D01*
X93239711Y-50128210D01*
X93239707Y-50128213D01*
X93128213Y-50239707D01*
X93128210Y-50239711D01*
X93040609Y-50370814D01*
X93040602Y-50370827D01*
X92980264Y-50516498D01*
X92980261Y-50516508D01*
X92949361Y-50671850D01*
X92916976Y-50733761D01*
X92915425Y-50735339D01*
X91269481Y-52381282D01*
X91269479Y-52381284D01*
X91249604Y-52415710D01*
X91241203Y-52430262D01*
X91190423Y-52518215D01*
X91149499Y-52670943D01*
X91149499Y-52670945D01*
X91149499Y-52839046D01*
X91149500Y-52839059D01*
X91149500Y-55920234D01*
X91129815Y-55987273D01*
X91128602Y-55989125D01*
X91040609Y-56120814D01*
X91040602Y-56120827D01*
X90980264Y-56266498D01*
X90980261Y-56266510D01*
X90949500Y-56421153D01*
X90949500Y-56578846D01*
X90980261Y-56733489D01*
X90980264Y-56733501D01*
X91040602Y-56879172D01*
X91040609Y-56879185D01*
X91128210Y-57010288D01*
X91128213Y-57010292D01*
X91239707Y-57121786D01*
X91239711Y-57121789D01*
X91331166Y-57182898D01*
X91375971Y-57236510D01*
X91384678Y-57305835D01*
X91354523Y-57368863D01*
X91295080Y-57405582D01*
X91262275Y-57410000D01*
X91010000Y-57410000D01*
X91010000Y-61425500D01*
X90990315Y-61492539D01*
X90937511Y-61538294D01*
X90886000Y-61549500D01*
X90824500Y-61549500D01*
X90757461Y-61529815D01*
X90711706Y-61477011D01*
X90700500Y-61425500D01*
X90700500Y-55925316D01*
X90709939Y-55877864D01*
X90747298Y-55787669D01*
X90769737Y-55733497D01*
X90800500Y-55578842D01*
X90800500Y-55421158D01*
X90800500Y-55421155D01*
X90800499Y-55421153D01*
X90769737Y-55266503D01*
X90764233Y-55253215D01*
X90709397Y-55120827D01*
X90709390Y-55120814D01*
X90621789Y-54989711D01*
X90621786Y-54989707D01*
X90510292Y-54878213D01*
X90510288Y-54878210D01*
X90379185Y-54790609D01*
X90379172Y-54790602D01*
X90233501Y-54730264D01*
X90233489Y-54730261D01*
X90078845Y-54699500D01*
X90078842Y-54699500D01*
X89921158Y-54699500D01*
X89921155Y-54699500D01*
X89766510Y-54730261D01*
X89766498Y-54730264D01*
X89620827Y-54790602D01*
X89620814Y-54790609D01*
X89568891Y-54825304D01*
X89502214Y-54846182D01*
X89434833Y-54827698D01*
X89431109Y-54825304D01*
X89379185Y-54790609D01*
X89379172Y-54790602D01*
X89233501Y-54730264D01*
X89233489Y-54730261D01*
X89078845Y-54699500D01*
X89078842Y-54699500D01*
X88921158Y-54699500D01*
X88921157Y-54699500D01*
X88908688Y-54701980D01*
X88839097Y-54695751D01*
X88783920Y-54652887D01*
X88760677Y-54586997D01*
X88760499Y-54580362D01*
X88760499Y-53442129D01*
X88760498Y-53442123D01*
X88759571Y-53433500D01*
X88754091Y-53382517D01*
X88752037Y-53377011D01*
X88703797Y-53247671D01*
X88703793Y-53247664D01*
X88617547Y-53132456D01*
X88617548Y-53132456D01*
X88617546Y-53132454D01*
X88533136Y-53069265D01*
X88491267Y-53013333D01*
X88486283Y-52943641D01*
X88519768Y-52882318D01*
X88533130Y-52870739D01*
X88617546Y-52807546D01*
X88703796Y-52692331D01*
X88754091Y-52557483D01*
X88760500Y-52497873D01*
X88760499Y-50902128D01*
X88754091Y-50842517D01*
X88748991Y-50828844D01*
X88703797Y-50707671D01*
X88703793Y-50707664D01*
X88617547Y-50592456D01*
X88617548Y-50592456D01*
X88617546Y-50592454D01*
X88533136Y-50529265D01*
X88491267Y-50473333D01*
X88486283Y-50403641D01*
X88519768Y-50342318D01*
X88533130Y-50330739D01*
X88617546Y-50267546D01*
X88703796Y-50152331D01*
X88754091Y-50017483D01*
X88760500Y-49957873D01*
X88760499Y-48362128D01*
X88754091Y-48302517D01*
X88712521Y-48191063D01*
X88703797Y-48167671D01*
X88703793Y-48167664D01*
X88617547Y-48052456D01*
X88617548Y-48052456D01*
X88617546Y-48052454D01*
X88533136Y-47989265D01*
X88491267Y-47933333D01*
X88486283Y-47863641D01*
X88519768Y-47802318D01*
X88533130Y-47790739D01*
X88617546Y-47727546D01*
X88703796Y-47612331D01*
X88748538Y-47492370D01*
X88790408Y-47436437D01*
X88855873Y-47412019D01*
X88888912Y-47414086D01*
X88921156Y-47420500D01*
X88921158Y-47420500D01*
X89078844Y-47420500D01*
X89078845Y-47420499D01*
X89233497Y-47389737D01*
X89346166Y-47343067D01*
X89379172Y-47329397D01*
X89379172Y-47329396D01*
X89379179Y-47329394D01*
X89510289Y-47241789D01*
X89621789Y-47130289D01*
X89709394Y-46999179D01*
X89769737Y-46853497D01*
X89800500Y-46698842D01*
X89800500Y-46541158D01*
X89800500Y-46541155D01*
X89800499Y-46541153D01*
X89781881Y-46447551D01*
X89788108Y-46377960D01*
X89830971Y-46322782D01*
X89896861Y-46299538D01*
X89915659Y-46299958D01*
X89921157Y-46300499D01*
X89921158Y-46300500D01*
X89921159Y-46300500D01*
X90078844Y-46300500D01*
X90078845Y-46300499D01*
X90233497Y-46269737D01*
X90379179Y-46209394D01*
X90379185Y-46209390D01*
X90510875Y-46121398D01*
X90577553Y-46100520D01*
X90579766Y-46100500D01*
X93170234Y-46100500D01*
X93237273Y-46120185D01*
X93239125Y-46121398D01*
X93370814Y-46209390D01*
X93370827Y-46209397D01*
X93462023Y-46247171D01*
X93516503Y-46269737D01*
X93666322Y-46299538D01*
X93671153Y-46300499D01*
X93671156Y-46300500D01*
X93671158Y-46300500D01*
X93828844Y-46300500D01*
X93828845Y-46300499D01*
X93983497Y-46269737D01*
X94129179Y-46209394D01*
X94260289Y-46121789D01*
X94371789Y-46010289D01*
X94459394Y-45879179D01*
X94519737Y-45733497D01*
X94550500Y-45578842D01*
X94550500Y-45474500D01*
X94570185Y-45407461D01*
X94622989Y-45361706D01*
X94674500Y-45350500D01*
X98670234Y-45350500D01*
X98737273Y-45370185D01*
X98739125Y-45371398D01*
X98870814Y-45459390D01*
X98870827Y-45459397D01*
X98998925Y-45512456D01*
X99016503Y-45519737D01*
X99171153Y-45550499D01*
X99171156Y-45550500D01*
X99171158Y-45550500D01*
X99328844Y-45550500D01*
X99328845Y-45550499D01*
X99483497Y-45519737D01*
X99629179Y-45459394D01*
X99760289Y-45371789D01*
X99871789Y-45260289D01*
X99959394Y-45129179D01*
X99962854Y-45120827D01*
X99982942Y-45072328D01*
X100019737Y-44983497D01*
X100050500Y-44828842D01*
X100050500Y-44671158D01*
X100050500Y-44671155D01*
X100050499Y-44671153D01*
X100019738Y-44516510D01*
X100019737Y-44516503D01*
X100019735Y-44516498D01*
X99959397Y-44370827D01*
X99959390Y-44370814D01*
X99871789Y-44239711D01*
X99871786Y-44239707D01*
X99760292Y-44128213D01*
X99760288Y-44128210D01*
X99629185Y-44040609D01*
X99629172Y-44040602D01*
X99483501Y-43980264D01*
X99483489Y-43980261D01*
X99328845Y-43949500D01*
X99328842Y-43949500D01*
X99171158Y-43949500D01*
X99171155Y-43949500D01*
X99016510Y-43980261D01*
X99016498Y-43980264D01*
X98870827Y-44040602D01*
X98870814Y-44040609D01*
X98739125Y-44128602D01*
X98672447Y-44149480D01*
X98670234Y-44149500D01*
X93499097Y-44149500D01*
X93432058Y-44129815D01*
X93386303Y-44077011D01*
X93376359Y-44007853D01*
X93405384Y-43944297D01*
X93411416Y-43937819D01*
X93712417Y-43636819D01*
X93773740Y-43603334D01*
X93800098Y-43600500D01*
X101125500Y-43600500D01*
X101192539Y-43620185D01*
G37*
%TD.AperFunction*%
%TA.AperFunction,Conductor*%
G36*
X101200171Y-38020185D02*
G01*
X101245926Y-38072989D01*
X101256422Y-38137755D01*
X101255910Y-38142513D01*
X101255909Y-38142517D01*
X101250937Y-38188759D01*
X101224201Y-38253306D01*
X101166808Y-38293154D01*
X101127649Y-38299500D01*
X99931004Y-38299500D01*
X99795677Y-38326418D01*
X99795667Y-38326421D01*
X99668192Y-38379222D01*
X99553454Y-38455887D01*
X99553453Y-38455888D01*
X98955887Y-39053455D01*
X98955883Y-39053459D01*
X98945506Y-39068992D01*
X98945505Y-39068994D01*
X98879228Y-39168182D01*
X98879221Y-39168195D01*
X98826421Y-39295667D01*
X98826418Y-39295677D01*
X98799500Y-39431004D01*
X98799500Y-40074684D01*
X98790061Y-40122136D01*
X98730264Y-40266498D01*
X98730261Y-40266510D01*
X98699500Y-40421153D01*
X98699500Y-40578846D01*
X98730261Y-40733489D01*
X98730264Y-40733501D01*
X98790602Y-40879172D01*
X98790609Y-40879185D01*
X98878210Y-41010288D01*
X98878213Y-41010292D01*
X98989707Y-41121786D01*
X98989711Y-41121789D01*
X99120814Y-41209390D01*
X99120827Y-41209397D01*
X99266498Y-41269735D01*
X99266503Y-41269737D01*
X99421153Y-41300499D01*
X99421156Y-41300500D01*
X99421158Y-41300500D01*
X99578844Y-41300500D01*
X99578845Y-41300499D01*
X99733497Y-41269737D01*
X99879179Y-41209394D01*
X100010289Y-41121789D01*
X100121789Y-41010289D01*
X100209394Y-40879179D01*
X100269737Y-40733497D01*
X100300500Y-40578842D01*
X100300500Y-40421158D01*
X100300500Y-40421155D01*
X100300499Y-40421153D01*
X100287874Y-40357682D01*
X100269737Y-40266503D01*
X100230198Y-40171046D01*
X100209939Y-40122136D01*
X100208312Y-40113959D01*
X100205523Y-40109619D01*
X100200500Y-40074684D01*
X100200500Y-39841519D01*
X100220185Y-39774480D01*
X100236819Y-39753838D01*
X100253838Y-39736819D01*
X100315161Y-39703334D01*
X100341519Y-39700500D01*
X101127649Y-39700500D01*
X101194688Y-39720185D01*
X101240443Y-39772989D01*
X101250939Y-39811248D01*
X101255908Y-39857483D01*
X101306202Y-39992328D01*
X101306206Y-39992335D01*
X101392452Y-40107544D01*
X101392455Y-40107547D01*
X101477278Y-40171046D01*
X101519149Y-40226979D01*
X101524133Y-40296671D01*
X101490647Y-40357994D01*
X101477279Y-40369578D01*
X101392809Y-40432812D01*
X101306649Y-40547906D01*
X101306645Y-40547913D01*
X101256403Y-40682620D01*
X101256401Y-40682627D01*
X101250000Y-40742155D01*
X101250000Y-42275500D01*
X101230315Y-42342539D01*
X101177511Y-42388294D01*
X101126000Y-42399500D01*
X93586670Y-42399500D01*
X93586654Y-42399499D01*
X93579058Y-42399499D01*
X93420943Y-42399499D01*
X93344579Y-42419961D01*
X93268214Y-42440423D01*
X93268209Y-42440426D01*
X93131290Y-42519475D01*
X93131282Y-42519481D01*
X92485339Y-43165425D01*
X92424016Y-43198910D01*
X92421850Y-43199361D01*
X92266508Y-43230261D01*
X92266498Y-43230264D01*
X92120827Y-43290602D01*
X92120814Y-43290609D01*
X91989711Y-43378210D01*
X91989707Y-43378213D01*
X91878213Y-43489707D01*
X91878210Y-43489711D01*
X91790609Y-43620814D01*
X91790602Y-43620827D01*
X91730264Y-43766498D01*
X91730261Y-43766508D01*
X91715042Y-43843020D01*
X91682657Y-43904931D01*
X91621941Y-43939505D01*
X91552171Y-43935764D01*
X91505744Y-43906509D01*
X91317590Y-43718355D01*
X91317588Y-43718352D01*
X91198717Y-43599481D01*
X91198716Y-43599480D01*
X91111904Y-43549360D01*
X91111904Y-43549359D01*
X91111900Y-43549358D01*
X91061785Y-43520423D01*
X90909057Y-43479499D01*
X90750943Y-43479499D01*
X90743347Y-43479499D01*
X90743331Y-43479500D01*
X88884499Y-43479500D01*
X88817460Y-43459815D01*
X88771705Y-43407011D01*
X88760499Y-43355500D01*
X88760499Y-43282129D01*
X88760498Y-43282123D01*
X88760497Y-43282116D01*
X88754091Y-43222517D01*
X88745506Y-43199500D01*
X88703797Y-43087671D01*
X88703793Y-43087664D01*
X88617547Y-42972456D01*
X88617548Y-42972456D01*
X88617546Y-42972454D01*
X88533136Y-42909265D01*
X88491267Y-42853333D01*
X88486283Y-42783641D01*
X88519768Y-42722318D01*
X88533130Y-42710739D01*
X88617546Y-42647546D01*
X88703796Y-42532331D01*
X88754091Y-42397483D01*
X88760500Y-42337873D01*
X88760499Y-40742128D01*
X88754091Y-40682517D01*
X88715424Y-40578846D01*
X88703797Y-40547671D01*
X88703793Y-40547664D01*
X88652123Y-40478643D01*
X88617546Y-40432454D01*
X88533136Y-40369265D01*
X88491267Y-40313333D01*
X88486283Y-40243641D01*
X88519768Y-40182318D01*
X88533130Y-40170739D01*
X88617546Y-40107546D01*
X88703796Y-39992331D01*
X88754091Y-39857483D01*
X88760500Y-39797873D01*
X88760499Y-38202128D01*
X88754091Y-38142517D01*
X88753579Y-38137753D01*
X88765986Y-38068994D01*
X88813597Y-38017857D01*
X88876869Y-38000500D01*
X101133132Y-38000500D01*
X101200171Y-38020185D01*
G37*
%TD.AperFunction*%
%TA.AperFunction,Conductor*%
G36*
X105517692Y-38020185D02*
G01*
X105563447Y-38072989D01*
X105573640Y-38108685D01*
X105872457Y-40432813D01*
X106134525Y-42471126D01*
X106131206Y-42491987D01*
X106132756Y-42513054D01*
X106125828Y-42525800D01*
X106123550Y-42540129D01*
X106109479Y-42555885D01*
X106099394Y-42574444D01*
X106086676Y-42581421D01*
X106077012Y-42592244D01*
X106056655Y-42597892D01*
X106038138Y-42608052D01*
X106023665Y-42607046D01*
X106009686Y-42610925D01*
X105989508Y-42604671D01*
X105968436Y-42603207D01*
X105946741Y-42591417D01*
X105942948Y-42590242D01*
X105939725Y-42587605D01*
X105937425Y-42586355D01*
X105930219Y-42580983D01*
X105868716Y-42519480D01*
X105781904Y-42469360D01*
X105731785Y-42440423D01*
X105579057Y-42399499D01*
X105420943Y-42399499D01*
X105413347Y-42399499D01*
X105413331Y-42399500D01*
X105374000Y-42399500D01*
X105306961Y-42379815D01*
X105261206Y-42327011D01*
X105250000Y-42275500D01*
X105250000Y-40742172D01*
X105249999Y-40742155D01*
X105243598Y-40682627D01*
X105243596Y-40682620D01*
X105193354Y-40547913D01*
X105193350Y-40547906D01*
X105107190Y-40432813D01*
X105022721Y-40369579D01*
X104980850Y-40313645D01*
X104975866Y-40243953D01*
X105009351Y-40182630D01*
X105022712Y-40171052D01*
X105107546Y-40107546D01*
X105193796Y-39992331D01*
X105244091Y-39857483D01*
X105250500Y-39797873D01*
X105250499Y-38202128D01*
X105244091Y-38142517D01*
X105243579Y-38137753D01*
X105246358Y-38122347D01*
X105244131Y-38106853D01*
X105252436Y-38088667D01*
X105255986Y-38068994D01*
X105266652Y-38057537D01*
X105273156Y-38043297D01*
X105289974Y-38032488D01*
X105303597Y-38017857D01*
X105319552Y-38013480D01*
X105331934Y-38005523D01*
X105366869Y-38000500D01*
X105450653Y-38000500D01*
X105517692Y-38020185D01*
G37*
%TD.AperFunction*%
%TD*%
M02*
