%TF.GenerationSoftware,KiCad,Pcbnew,9.0.3*%
%TF.CreationDate,2026-06-16T21:44:30+01:00*%
%TF.ProjectId,AmiBLEHID,416d6942-4c45-4484-9944-2e6b69636164,rev?*%
%TF.SameCoordinates,Original*%
%TF.FileFunction,Soldermask,Top*%
%TF.FilePolarity,Negative*%
%FSLAX46Y46*%
G04 Gerber Fmt 4.6, Leading zero omitted, Abs format (unit mm)*
G04 Created by KiCad (PCBNEW 9.0.3) date 2026-06-16 21:44:30*
%MOMM*%
%LPD*%
G01*
G04 APERTURE LIST*
G04 Aperture macros list*
%AMRoundRect*
0 Rectangle with rounded corners*
0 $1 Rounding radius*
0 $2 $3 $4 $5 $6 $7 $8 $9 X,Y pos of 4 corners*
0 Add a 4 corners polygon primitive as box body*
4,1,4,$2,$3,$4,$5,$6,$7,$8,$9,$2,$3,0*
0 Add four circle primitives for the rounded corners*
1,1,$1+$1,$2,$3*
1,1,$1+$1,$4,$5*
1,1,$1+$1,$6,$7*
1,1,$1+$1,$8,$9*
0 Add four rect primitives between the rounded corners*
20,1,$1+$1,$2,$3,$4,$5,0*
20,1,$1+$1,$4,$5,$6,$7,0*
20,1,$1+$1,$6,$7,$8,$9,0*
20,1,$1+$1,$8,$9,$2,$3,0*%
G04 Aperture macros list end*
%ADD10RoundRect,0.250000X0.312500X0.625000X-0.312500X0.625000X-0.312500X-0.625000X0.312500X-0.625000X0*%
%ADD11RoundRect,0.250000X0.625000X-0.375000X0.625000X0.375000X-0.625000X0.375000X-0.625000X-0.375000X0*%
%ADD12RoundRect,0.250000X0.375000X0.625000X-0.375000X0.625000X-0.375000X-0.625000X0.375000X-0.625000X0*%
%ADD13RoundRect,0.200000X0.200000X-0.550000X0.200000X0.550000X-0.200000X0.550000X-0.200000X-0.550000X0*%
%ADD14RoundRect,0.150000X0.150000X-0.837500X0.150000X0.837500X-0.150000X0.837500X-0.150000X-0.837500X0*%
%ADD15RoundRect,0.250000X0.250000X-0.525000X0.250000X0.525000X-0.250000X0.525000X-0.250000X-0.525000X0*%
%ADD16RoundRect,0.250000X-0.250000X0.525000X-0.250000X-0.525000X0.250000X-0.525000X0.250000X0.525000X0*%
%ADD17R,1.846667X3.480000*%
G04 APERTURE END LIST*
D10*
%TO.C,R1*%
X96375000Y-42250000D03*
X93450000Y-42250000D03*
%TD*%
D11*
%TO.C,D2*%
X88500000Y-59500000D03*
X88500000Y-56700000D03*
%TD*%
D12*
%TO.C,D1*%
X85900000Y-66250000D03*
X83100000Y-66250000D03*
%TD*%
D13*
%TO.C,LED1*%
X86220000Y-43750000D03*
X88000000Y-43750000D03*
X88000000Y-40470000D03*
X86220000Y-40470000D03*
%TD*%
D14*
%TO.C,U2*%
X91250000Y-54425000D03*
X92520000Y-54425000D03*
X93790000Y-54425000D03*
X95060000Y-54425000D03*
X96330000Y-54425000D03*
X97600000Y-54425000D03*
X98870000Y-54425000D03*
X98870000Y-47500000D03*
X97600000Y-47500000D03*
X96330000Y-47500000D03*
X95060000Y-47500000D03*
X93790000Y-47500000D03*
X92520000Y-47500000D03*
X91250000Y-47500000D03*
%TD*%
D13*
%TO.C,LED2*%
X101970000Y-43750000D03*
X103750000Y-43750000D03*
X103750000Y-40470000D03*
X101970000Y-40470000D03*
%TD*%
D15*
%TO.C,SW2*%
X104000000Y-63750000D03*
X104000000Y-58500000D03*
X107200000Y-63750000D03*
X107200000Y-58500000D03*
%TD*%
D16*
%TO.C,SW1*%
X86000000Y-58500000D03*
X86000000Y-63750000D03*
X82800000Y-58500000D03*
X82800000Y-63750000D03*
%TD*%
D17*
%TO.C,J1*%
X100540000Y-65957500D03*
X97770000Y-65957500D03*
X95000000Y-65957500D03*
X92230000Y-65957500D03*
X89460000Y-65957500D03*
%TD*%
M02*
