%TF.GenerationSoftware,KiCad,Pcbnew,9.0.3*%
%TF.CreationDate,2026-06-16T21:44:30+01:00*%
%TF.ProjectId,AmiBLEHID,416d6942-4c45-4484-9944-2e6b69636164,rev?*%
%TF.SameCoordinates,Original*%
%TF.FileFunction,Legend,Top*%
%TF.FilePolarity,Positive*%
%FSLAX46Y46*%
G04 Gerber Fmt 4.6, Leading zero omitted, Abs format (unit mm)*
G04 Created by KiCad (PCBNEW 9.0.3) date 2026-06-16 21:44:30*
%MOMM*%
%LPD*%
G01*
G04 APERTURE LIST*
%ADD10C,0.200000*%
%ADD11C,0.150000*%
%ADD12C,0.120000*%
G04 APERTURE END LIST*
D10*
X93178571Y-59994742D02*
X93440476Y-60794742D01*
X93440476Y-60794742D02*
X93702381Y-59994742D01*
X94330952Y-59594742D02*
X94435714Y-59594742D01*
X94435714Y-59594742D02*
X94540476Y-59651885D01*
X94540476Y-59651885D02*
X94592857Y-59709028D01*
X94592857Y-59709028D02*
X94645238Y-59823314D01*
X94645238Y-59823314D02*
X94697619Y-60051885D01*
X94697619Y-60051885D02*
X94697619Y-60337600D01*
X94697619Y-60337600D02*
X94645238Y-60566171D01*
X94645238Y-60566171D02*
X94592857Y-60680457D01*
X94592857Y-60680457D02*
X94540476Y-60737600D01*
X94540476Y-60737600D02*
X94435714Y-60794742D01*
X94435714Y-60794742D02*
X94330952Y-60794742D01*
X94330952Y-60794742D02*
X94226190Y-60737600D01*
X94226190Y-60737600D02*
X94173809Y-60680457D01*
X94173809Y-60680457D02*
X94121428Y-60566171D01*
X94121428Y-60566171D02*
X94069047Y-60337600D01*
X94069047Y-60337600D02*
X94069047Y-60051885D01*
X94069047Y-60051885D02*
X94121428Y-59823314D01*
X94121428Y-59823314D02*
X94173809Y-59709028D01*
X94173809Y-59709028D02*
X94226190Y-59651885D01*
X94226190Y-59651885D02*
X94330952Y-59594742D01*
X95169047Y-60680457D02*
X95221428Y-60737600D01*
X95221428Y-60737600D02*
X95169047Y-60794742D01*
X95169047Y-60794742D02*
X95116666Y-60737600D01*
X95116666Y-60737600D02*
X95169047Y-60680457D01*
X95169047Y-60680457D02*
X95169047Y-60794742D01*
X96164286Y-59994742D02*
X96164286Y-60794742D01*
X95902381Y-59537600D02*
X95640476Y-60394742D01*
X95640476Y-60394742D02*
X96321429Y-60394742D01*
X90960369Y-58701885D02*
X91484179Y-58701885D01*
X90855607Y-59044742D02*
X91222274Y-57844742D01*
X91222274Y-57844742D02*
X91588941Y-59044742D01*
X91955607Y-59044742D02*
X91955607Y-58244742D01*
X91955607Y-58359028D02*
X92007988Y-58301885D01*
X92007988Y-58301885D02*
X92112750Y-58244742D01*
X92112750Y-58244742D02*
X92269893Y-58244742D01*
X92269893Y-58244742D02*
X92374655Y-58301885D01*
X92374655Y-58301885D02*
X92427036Y-58416171D01*
X92427036Y-58416171D02*
X92427036Y-59044742D01*
X92427036Y-58416171D02*
X92479417Y-58301885D01*
X92479417Y-58301885D02*
X92584179Y-58244742D01*
X92584179Y-58244742D02*
X92741322Y-58244742D01*
X92741322Y-58244742D02*
X92846083Y-58301885D01*
X92846083Y-58301885D02*
X92898464Y-58416171D01*
X92898464Y-58416171D02*
X92898464Y-59044742D01*
X93422274Y-59044742D02*
X93422274Y-58244742D01*
X93422274Y-57844742D02*
X93369893Y-57901885D01*
X93369893Y-57901885D02*
X93422274Y-57959028D01*
X93422274Y-57959028D02*
X93474655Y-57901885D01*
X93474655Y-57901885D02*
X93422274Y-57844742D01*
X93422274Y-57844742D02*
X93422274Y-57959028D01*
X94312751Y-58416171D02*
X94469894Y-58473314D01*
X94469894Y-58473314D02*
X94522275Y-58530457D01*
X94522275Y-58530457D02*
X94574656Y-58644742D01*
X94574656Y-58644742D02*
X94574656Y-58816171D01*
X94574656Y-58816171D02*
X94522275Y-58930457D01*
X94522275Y-58930457D02*
X94469894Y-58987600D01*
X94469894Y-58987600D02*
X94365132Y-59044742D01*
X94365132Y-59044742D02*
X93946084Y-59044742D01*
X93946084Y-59044742D02*
X93946084Y-57844742D01*
X93946084Y-57844742D02*
X94312751Y-57844742D01*
X94312751Y-57844742D02*
X94417513Y-57901885D01*
X94417513Y-57901885D02*
X94469894Y-57959028D01*
X94469894Y-57959028D02*
X94522275Y-58073314D01*
X94522275Y-58073314D02*
X94522275Y-58187600D01*
X94522275Y-58187600D02*
X94469894Y-58301885D01*
X94469894Y-58301885D02*
X94417513Y-58359028D01*
X94417513Y-58359028D02*
X94312751Y-58416171D01*
X94312751Y-58416171D02*
X93946084Y-58416171D01*
X95569894Y-59044742D02*
X95046084Y-59044742D01*
X95046084Y-59044742D02*
X95046084Y-57844742D01*
X95936560Y-58416171D02*
X96303227Y-58416171D01*
X96460370Y-59044742D02*
X95936560Y-59044742D01*
X95936560Y-59044742D02*
X95936560Y-57844742D01*
X95936560Y-57844742D02*
X96460370Y-57844742D01*
X96931798Y-59044742D02*
X96931798Y-57844742D01*
X96931798Y-58416171D02*
X97560370Y-58416171D01*
X97560370Y-59044742D02*
X97560370Y-57844742D01*
X98084179Y-59044742D02*
X98084179Y-57844742D01*
X98607989Y-59044742D02*
X98607989Y-57844742D01*
X98607989Y-57844742D02*
X98869894Y-57844742D01*
X98869894Y-57844742D02*
X99027037Y-57901885D01*
X99027037Y-57901885D02*
X99131799Y-58016171D01*
X99131799Y-58016171D02*
X99184180Y-58130457D01*
X99184180Y-58130457D02*
X99236561Y-58359028D01*
X99236561Y-58359028D02*
X99236561Y-58530457D01*
X99236561Y-58530457D02*
X99184180Y-58759028D01*
X99184180Y-58759028D02*
X99131799Y-58873314D01*
X99131799Y-58873314D02*
X99027037Y-58987600D01*
X99027037Y-58987600D02*
X98869894Y-59044742D01*
X98869894Y-59044742D02*
X98607989Y-59044742D01*
D11*
X94779167Y-42612295D02*
X94512500Y-42231342D01*
X94322024Y-42612295D02*
X94322024Y-41812295D01*
X94322024Y-41812295D02*
X94626786Y-41812295D01*
X94626786Y-41812295D02*
X94702976Y-41850390D01*
X94702976Y-41850390D02*
X94741071Y-41888485D01*
X94741071Y-41888485D02*
X94779167Y-41964676D01*
X94779167Y-41964676D02*
X94779167Y-42078961D01*
X94779167Y-42078961D02*
X94741071Y-42155152D01*
X94741071Y-42155152D02*
X94702976Y-42193247D01*
X94702976Y-42193247D02*
X94626786Y-42231342D01*
X94626786Y-42231342D02*
X94322024Y-42231342D01*
X95541071Y-42612295D02*
X95083928Y-42612295D01*
X95312500Y-42612295D02*
X95312500Y-41812295D01*
X95312500Y-41812295D02*
X95236309Y-41926580D01*
X95236309Y-41926580D02*
X95160119Y-42002771D01*
X95160119Y-42002771D02*
X95083928Y-42040866D01*
X88862295Y-58690475D02*
X88062295Y-58690475D01*
X88062295Y-58690475D02*
X88062295Y-58499999D01*
X88062295Y-58499999D02*
X88100390Y-58385713D01*
X88100390Y-58385713D02*
X88176580Y-58309523D01*
X88176580Y-58309523D02*
X88252771Y-58271428D01*
X88252771Y-58271428D02*
X88405152Y-58233332D01*
X88405152Y-58233332D02*
X88519438Y-58233332D01*
X88519438Y-58233332D02*
X88671819Y-58271428D01*
X88671819Y-58271428D02*
X88748009Y-58309523D01*
X88748009Y-58309523D02*
X88824200Y-58385713D01*
X88824200Y-58385713D02*
X88862295Y-58499999D01*
X88862295Y-58499999D02*
X88862295Y-58690475D01*
X88138485Y-57928571D02*
X88100390Y-57890475D01*
X88100390Y-57890475D02*
X88062295Y-57814285D01*
X88062295Y-57814285D02*
X88062295Y-57623809D01*
X88062295Y-57623809D02*
X88100390Y-57547618D01*
X88100390Y-57547618D02*
X88138485Y-57509523D01*
X88138485Y-57509523D02*
X88214676Y-57471428D01*
X88214676Y-57471428D02*
X88290866Y-57471428D01*
X88290866Y-57471428D02*
X88405152Y-57509523D01*
X88405152Y-57509523D02*
X88862295Y-57966666D01*
X88862295Y-57966666D02*
X88862295Y-57471428D01*
X83909524Y-66612295D02*
X83909524Y-65812295D01*
X83909524Y-65812295D02*
X84100000Y-65812295D01*
X84100000Y-65812295D02*
X84214286Y-65850390D01*
X84214286Y-65850390D02*
X84290476Y-65926580D01*
X84290476Y-65926580D02*
X84328571Y-66002771D01*
X84328571Y-66002771D02*
X84366667Y-66155152D01*
X84366667Y-66155152D02*
X84366667Y-66269438D01*
X84366667Y-66269438D02*
X84328571Y-66421819D01*
X84328571Y-66421819D02*
X84290476Y-66498009D01*
X84290476Y-66498009D02*
X84214286Y-66574200D01*
X84214286Y-66574200D02*
X84100000Y-66612295D01*
X84100000Y-66612295D02*
X83909524Y-66612295D01*
X85128571Y-66612295D02*
X84671428Y-66612295D01*
X84900000Y-66612295D02*
X84900000Y-65812295D01*
X84900000Y-65812295D02*
X84823809Y-65926580D01*
X84823809Y-65926580D02*
X84747619Y-66002771D01*
X84747619Y-66002771D02*
X84671428Y-66040866D01*
X84943333Y-46157200D02*
X85086190Y-46204819D01*
X85086190Y-46204819D02*
X85324285Y-46204819D01*
X85324285Y-46204819D02*
X85419523Y-46157200D01*
X85419523Y-46157200D02*
X85467142Y-46109580D01*
X85467142Y-46109580D02*
X85514761Y-46014342D01*
X85514761Y-46014342D02*
X85514761Y-45919104D01*
X85514761Y-45919104D02*
X85467142Y-45823866D01*
X85467142Y-45823866D02*
X85419523Y-45776247D01*
X85419523Y-45776247D02*
X85324285Y-45728628D01*
X85324285Y-45728628D02*
X85133809Y-45681009D01*
X85133809Y-45681009D02*
X85038571Y-45633390D01*
X85038571Y-45633390D02*
X84990952Y-45585771D01*
X84990952Y-45585771D02*
X84943333Y-45490533D01*
X84943333Y-45490533D02*
X84943333Y-45395295D01*
X84943333Y-45395295D02*
X84990952Y-45300057D01*
X84990952Y-45300057D02*
X85038571Y-45252438D01*
X85038571Y-45252438D02*
X85133809Y-45204819D01*
X85133809Y-45204819D02*
X85371904Y-45204819D01*
X85371904Y-45204819D02*
X85514761Y-45252438D01*
X85800476Y-45538152D02*
X86181428Y-45538152D01*
X85943333Y-45204819D02*
X85943333Y-46061961D01*
X85943333Y-46061961D02*
X85990952Y-46157200D01*
X85990952Y-46157200D02*
X86086190Y-46204819D01*
X86086190Y-46204819D02*
X86181428Y-46204819D01*
X86943333Y-46204819D02*
X86943333Y-45681009D01*
X86943333Y-45681009D02*
X86895714Y-45585771D01*
X86895714Y-45585771D02*
X86800476Y-45538152D01*
X86800476Y-45538152D02*
X86610000Y-45538152D01*
X86610000Y-45538152D02*
X86514762Y-45585771D01*
X86943333Y-46157200D02*
X86848095Y-46204819D01*
X86848095Y-46204819D02*
X86610000Y-46204819D01*
X86610000Y-46204819D02*
X86514762Y-46157200D01*
X86514762Y-46157200D02*
X86467143Y-46061961D01*
X86467143Y-46061961D02*
X86467143Y-45966723D01*
X86467143Y-45966723D02*
X86514762Y-45871485D01*
X86514762Y-45871485D02*
X86610000Y-45823866D01*
X86610000Y-45823866D02*
X86848095Y-45823866D01*
X86848095Y-45823866D02*
X86943333Y-45776247D01*
X87276667Y-45538152D02*
X87657619Y-45538152D01*
X87419524Y-45204819D02*
X87419524Y-46061961D01*
X87419524Y-46061961D02*
X87467143Y-46157200D01*
X87467143Y-46157200D02*
X87562381Y-46204819D01*
X87562381Y-46204819D02*
X87657619Y-46204819D01*
X88419524Y-45538152D02*
X88419524Y-46204819D01*
X87990953Y-45538152D02*
X87990953Y-46061961D01*
X87990953Y-46061961D02*
X88038572Y-46157200D01*
X88038572Y-46157200D02*
X88133810Y-46204819D01*
X88133810Y-46204819D02*
X88276667Y-46204819D01*
X88276667Y-46204819D02*
X88371905Y-46157200D01*
X88371905Y-46157200D02*
X88419524Y-46109580D01*
X88848096Y-46157200D02*
X88943334Y-46204819D01*
X88943334Y-46204819D02*
X89133810Y-46204819D01*
X89133810Y-46204819D02*
X89229048Y-46157200D01*
X89229048Y-46157200D02*
X89276667Y-46061961D01*
X89276667Y-46061961D02*
X89276667Y-46014342D01*
X89276667Y-46014342D02*
X89229048Y-45919104D01*
X89229048Y-45919104D02*
X89133810Y-45871485D01*
X89133810Y-45871485D02*
X88990953Y-45871485D01*
X88990953Y-45871485D02*
X88895715Y-45823866D01*
X88895715Y-45823866D02*
X88848096Y-45728628D01*
X88848096Y-45728628D02*
X88848096Y-45681009D01*
X88848096Y-45681009D02*
X88895715Y-45585771D01*
X88895715Y-45585771D02*
X88990953Y-45538152D01*
X88990953Y-45538152D02*
X89133810Y-45538152D01*
X89133810Y-45538152D02*
X89229048Y-45585771D01*
X92274286Y-50417319D02*
X92940952Y-50417319D01*
X92940952Y-50417319D02*
X92512381Y-51417319D01*
X93750476Y-50750652D02*
X93750476Y-51417319D01*
X93512381Y-50369700D02*
X93274286Y-51083985D01*
X93274286Y-51083985D02*
X93893333Y-51083985D01*
X94274286Y-51417319D02*
X94274286Y-50417319D01*
X94274286Y-50893509D02*
X94845714Y-50893509D01*
X94845714Y-51417319D02*
X94845714Y-50417319D01*
X95893333Y-51322080D02*
X95845714Y-51369700D01*
X95845714Y-51369700D02*
X95702857Y-51417319D01*
X95702857Y-51417319D02*
X95607619Y-51417319D01*
X95607619Y-51417319D02*
X95464762Y-51369700D01*
X95464762Y-51369700D02*
X95369524Y-51274461D01*
X95369524Y-51274461D02*
X95321905Y-51179223D01*
X95321905Y-51179223D02*
X95274286Y-50988747D01*
X95274286Y-50988747D02*
X95274286Y-50845890D01*
X95274286Y-50845890D02*
X95321905Y-50655414D01*
X95321905Y-50655414D02*
X95369524Y-50560176D01*
X95369524Y-50560176D02*
X95464762Y-50464938D01*
X95464762Y-50464938D02*
X95607619Y-50417319D01*
X95607619Y-50417319D02*
X95702857Y-50417319D01*
X95702857Y-50417319D02*
X95845714Y-50464938D01*
X95845714Y-50464938D02*
X95893333Y-50512557D01*
X96512381Y-50417319D02*
X96607619Y-50417319D01*
X96607619Y-50417319D02*
X96702857Y-50464938D01*
X96702857Y-50464938D02*
X96750476Y-50512557D01*
X96750476Y-50512557D02*
X96798095Y-50607795D01*
X96798095Y-50607795D02*
X96845714Y-50798271D01*
X96845714Y-50798271D02*
X96845714Y-51036366D01*
X96845714Y-51036366D02*
X96798095Y-51226842D01*
X96798095Y-51226842D02*
X96750476Y-51322080D01*
X96750476Y-51322080D02*
X96702857Y-51369700D01*
X96702857Y-51369700D02*
X96607619Y-51417319D01*
X96607619Y-51417319D02*
X96512381Y-51417319D01*
X96512381Y-51417319D02*
X96417143Y-51369700D01*
X96417143Y-51369700D02*
X96369524Y-51322080D01*
X96369524Y-51322080D02*
X96321905Y-51226842D01*
X96321905Y-51226842D02*
X96274286Y-51036366D01*
X96274286Y-51036366D02*
X96274286Y-50798271D01*
X96274286Y-50798271D02*
X96321905Y-50607795D01*
X96321905Y-50607795D02*
X96369524Y-50512557D01*
X96369524Y-50512557D02*
X96417143Y-50464938D01*
X96417143Y-50464938D02*
X96512381Y-50417319D01*
X97750476Y-50417319D02*
X97274286Y-50417319D01*
X97274286Y-50417319D02*
X97226667Y-50893509D01*
X97226667Y-50893509D02*
X97274286Y-50845890D01*
X97274286Y-50845890D02*
X97369524Y-50798271D01*
X97369524Y-50798271D02*
X97607619Y-50798271D01*
X97607619Y-50798271D02*
X97702857Y-50845890D01*
X97702857Y-50845890D02*
X97750476Y-50893509D01*
X97750476Y-50893509D02*
X97798095Y-50988747D01*
X97798095Y-50988747D02*
X97798095Y-51226842D01*
X97798095Y-51226842D02*
X97750476Y-51322080D01*
X97750476Y-51322080D02*
X97702857Y-51369700D01*
X97702857Y-51369700D02*
X97607619Y-51417319D01*
X97607619Y-51417319D02*
X97369524Y-51417319D01*
X97369524Y-51417319D02*
X97274286Y-51369700D01*
X97274286Y-51369700D02*
X97226667Y-51322080D01*
X101193333Y-46204819D02*
X101193333Y-45204819D01*
X101193333Y-45204819D02*
X101526666Y-45919104D01*
X101526666Y-45919104D02*
X101859999Y-45204819D01*
X101859999Y-45204819D02*
X101859999Y-46204819D01*
X102479047Y-46204819D02*
X102383809Y-46157200D01*
X102383809Y-46157200D02*
X102336190Y-46109580D01*
X102336190Y-46109580D02*
X102288571Y-46014342D01*
X102288571Y-46014342D02*
X102288571Y-45728628D01*
X102288571Y-45728628D02*
X102336190Y-45633390D01*
X102336190Y-45633390D02*
X102383809Y-45585771D01*
X102383809Y-45585771D02*
X102479047Y-45538152D01*
X102479047Y-45538152D02*
X102621904Y-45538152D01*
X102621904Y-45538152D02*
X102717142Y-45585771D01*
X102717142Y-45585771D02*
X102764761Y-45633390D01*
X102764761Y-45633390D02*
X102812380Y-45728628D01*
X102812380Y-45728628D02*
X102812380Y-46014342D01*
X102812380Y-46014342D02*
X102764761Y-46109580D01*
X102764761Y-46109580D02*
X102717142Y-46157200D01*
X102717142Y-46157200D02*
X102621904Y-46204819D01*
X102621904Y-46204819D02*
X102479047Y-46204819D01*
X103669523Y-46204819D02*
X103669523Y-45204819D01*
X103669523Y-46157200D02*
X103574285Y-46204819D01*
X103574285Y-46204819D02*
X103383809Y-46204819D01*
X103383809Y-46204819D02*
X103288571Y-46157200D01*
X103288571Y-46157200D02*
X103240952Y-46109580D01*
X103240952Y-46109580D02*
X103193333Y-46014342D01*
X103193333Y-46014342D02*
X103193333Y-45728628D01*
X103193333Y-45728628D02*
X103240952Y-45633390D01*
X103240952Y-45633390D02*
X103288571Y-45585771D01*
X103288571Y-45585771D02*
X103383809Y-45538152D01*
X103383809Y-45538152D02*
X103574285Y-45538152D01*
X103574285Y-45538152D02*
X103669523Y-45585771D01*
X104526666Y-46157200D02*
X104431428Y-46204819D01*
X104431428Y-46204819D02*
X104240952Y-46204819D01*
X104240952Y-46204819D02*
X104145714Y-46157200D01*
X104145714Y-46157200D02*
X104098095Y-46061961D01*
X104098095Y-46061961D02*
X104098095Y-45681009D01*
X104098095Y-45681009D02*
X104145714Y-45585771D01*
X104145714Y-45585771D02*
X104240952Y-45538152D01*
X104240952Y-45538152D02*
X104431428Y-45538152D01*
X104431428Y-45538152D02*
X104526666Y-45585771D01*
X104526666Y-45585771D02*
X104574285Y-45681009D01*
X104574285Y-45681009D02*
X104574285Y-45776247D01*
X104574285Y-45776247D02*
X104098095Y-45871485D01*
X104266667Y-61532200D02*
X104409524Y-61579819D01*
X104409524Y-61579819D02*
X104647619Y-61579819D01*
X104647619Y-61579819D02*
X104742857Y-61532200D01*
X104742857Y-61532200D02*
X104790476Y-61484580D01*
X104790476Y-61484580D02*
X104838095Y-61389342D01*
X104838095Y-61389342D02*
X104838095Y-61294104D01*
X104838095Y-61294104D02*
X104790476Y-61198866D01*
X104790476Y-61198866D02*
X104742857Y-61151247D01*
X104742857Y-61151247D02*
X104647619Y-61103628D01*
X104647619Y-61103628D02*
X104457143Y-61056009D01*
X104457143Y-61056009D02*
X104361905Y-61008390D01*
X104361905Y-61008390D02*
X104314286Y-60960771D01*
X104314286Y-60960771D02*
X104266667Y-60865533D01*
X104266667Y-60865533D02*
X104266667Y-60770295D01*
X104266667Y-60770295D02*
X104314286Y-60675057D01*
X104314286Y-60675057D02*
X104361905Y-60627438D01*
X104361905Y-60627438D02*
X104457143Y-60579819D01*
X104457143Y-60579819D02*
X104695238Y-60579819D01*
X104695238Y-60579819D02*
X104838095Y-60627438D01*
X105171429Y-60579819D02*
X105409524Y-61579819D01*
X105409524Y-61579819D02*
X105600000Y-60865533D01*
X105600000Y-60865533D02*
X105790476Y-61579819D01*
X105790476Y-61579819D02*
X106028572Y-60579819D01*
X106361905Y-60675057D02*
X106409524Y-60627438D01*
X106409524Y-60627438D02*
X106504762Y-60579819D01*
X106504762Y-60579819D02*
X106742857Y-60579819D01*
X106742857Y-60579819D02*
X106838095Y-60627438D01*
X106838095Y-60627438D02*
X106885714Y-60675057D01*
X106885714Y-60675057D02*
X106933333Y-60770295D01*
X106933333Y-60770295D02*
X106933333Y-60865533D01*
X106933333Y-60865533D02*
X106885714Y-61008390D01*
X106885714Y-61008390D02*
X106314286Y-61579819D01*
X106314286Y-61579819D02*
X106933333Y-61579819D01*
X103858169Y-56954819D02*
X103858169Y-55954819D01*
X103858169Y-55954819D02*
X104191502Y-56669104D01*
X104191502Y-56669104D02*
X104524835Y-55954819D01*
X104524835Y-55954819D02*
X104524835Y-56954819D01*
X105143883Y-56954819D02*
X105048645Y-56907200D01*
X105048645Y-56907200D02*
X105001026Y-56859580D01*
X105001026Y-56859580D02*
X104953407Y-56764342D01*
X104953407Y-56764342D02*
X104953407Y-56478628D01*
X104953407Y-56478628D02*
X105001026Y-56383390D01*
X105001026Y-56383390D02*
X105048645Y-56335771D01*
X105048645Y-56335771D02*
X105143883Y-56288152D01*
X105143883Y-56288152D02*
X105286740Y-56288152D01*
X105286740Y-56288152D02*
X105381978Y-56335771D01*
X105381978Y-56335771D02*
X105429597Y-56383390D01*
X105429597Y-56383390D02*
X105477216Y-56478628D01*
X105477216Y-56478628D02*
X105477216Y-56764342D01*
X105477216Y-56764342D02*
X105429597Y-56859580D01*
X105429597Y-56859580D02*
X105381978Y-56907200D01*
X105381978Y-56907200D02*
X105286740Y-56954819D01*
X105286740Y-56954819D02*
X105143883Y-56954819D01*
X106334359Y-56954819D02*
X106334359Y-55954819D01*
X106334359Y-56907200D02*
X106239121Y-56954819D01*
X106239121Y-56954819D02*
X106048645Y-56954819D01*
X106048645Y-56954819D02*
X105953407Y-56907200D01*
X105953407Y-56907200D02*
X105905788Y-56859580D01*
X105905788Y-56859580D02*
X105858169Y-56764342D01*
X105858169Y-56764342D02*
X105858169Y-56478628D01*
X105858169Y-56478628D02*
X105905788Y-56383390D01*
X105905788Y-56383390D02*
X105953407Y-56335771D01*
X105953407Y-56335771D02*
X106048645Y-56288152D01*
X106048645Y-56288152D02*
X106239121Y-56288152D01*
X106239121Y-56288152D02*
X106334359Y-56335771D01*
X107191502Y-56907200D02*
X107096264Y-56954819D01*
X107096264Y-56954819D02*
X106905788Y-56954819D01*
X106905788Y-56954819D02*
X106810550Y-56907200D01*
X106810550Y-56907200D02*
X106762931Y-56811961D01*
X106762931Y-56811961D02*
X106762931Y-56431009D01*
X106762931Y-56431009D02*
X106810550Y-56335771D01*
X106810550Y-56335771D02*
X106905788Y-56288152D01*
X106905788Y-56288152D02*
X107096264Y-56288152D01*
X107096264Y-56288152D02*
X107191502Y-56335771D01*
X107191502Y-56335771D02*
X107239121Y-56431009D01*
X107239121Y-56431009D02*
X107239121Y-56526247D01*
X107239121Y-56526247D02*
X106762931Y-56621485D01*
X83066667Y-61532200D02*
X83209524Y-61579819D01*
X83209524Y-61579819D02*
X83447619Y-61579819D01*
X83447619Y-61579819D02*
X83542857Y-61532200D01*
X83542857Y-61532200D02*
X83590476Y-61484580D01*
X83590476Y-61484580D02*
X83638095Y-61389342D01*
X83638095Y-61389342D02*
X83638095Y-61294104D01*
X83638095Y-61294104D02*
X83590476Y-61198866D01*
X83590476Y-61198866D02*
X83542857Y-61151247D01*
X83542857Y-61151247D02*
X83447619Y-61103628D01*
X83447619Y-61103628D02*
X83257143Y-61056009D01*
X83257143Y-61056009D02*
X83161905Y-61008390D01*
X83161905Y-61008390D02*
X83114286Y-60960771D01*
X83114286Y-60960771D02*
X83066667Y-60865533D01*
X83066667Y-60865533D02*
X83066667Y-60770295D01*
X83066667Y-60770295D02*
X83114286Y-60675057D01*
X83114286Y-60675057D02*
X83161905Y-60627438D01*
X83161905Y-60627438D02*
X83257143Y-60579819D01*
X83257143Y-60579819D02*
X83495238Y-60579819D01*
X83495238Y-60579819D02*
X83638095Y-60627438D01*
X83971429Y-60579819D02*
X84209524Y-61579819D01*
X84209524Y-61579819D02*
X84400000Y-60865533D01*
X84400000Y-60865533D02*
X84590476Y-61579819D01*
X84590476Y-61579819D02*
X84828572Y-60579819D01*
X85733333Y-61579819D02*
X85161905Y-61579819D01*
X85447619Y-61579819D02*
X85447619Y-60579819D01*
X85447619Y-60579819D02*
X85352381Y-60722676D01*
X85352381Y-60722676D02*
X85257143Y-60817914D01*
X85257143Y-60817914D02*
X85161905Y-60865533D01*
X83077229Y-56954819D02*
X82743896Y-56478628D01*
X82505801Y-56954819D02*
X82505801Y-55954819D01*
X82505801Y-55954819D02*
X82886753Y-55954819D01*
X82886753Y-55954819D02*
X82981991Y-56002438D01*
X82981991Y-56002438D02*
X83029610Y-56050057D01*
X83029610Y-56050057D02*
X83077229Y-56145295D01*
X83077229Y-56145295D02*
X83077229Y-56288152D01*
X83077229Y-56288152D02*
X83029610Y-56383390D01*
X83029610Y-56383390D02*
X82981991Y-56431009D01*
X82981991Y-56431009D02*
X82886753Y-56478628D01*
X82886753Y-56478628D02*
X82505801Y-56478628D01*
X83886753Y-56907200D02*
X83791515Y-56954819D01*
X83791515Y-56954819D02*
X83601039Y-56954819D01*
X83601039Y-56954819D02*
X83505801Y-56907200D01*
X83505801Y-56907200D02*
X83458182Y-56811961D01*
X83458182Y-56811961D02*
X83458182Y-56431009D01*
X83458182Y-56431009D02*
X83505801Y-56335771D01*
X83505801Y-56335771D02*
X83601039Y-56288152D01*
X83601039Y-56288152D02*
X83791515Y-56288152D01*
X83791515Y-56288152D02*
X83886753Y-56335771D01*
X83886753Y-56335771D02*
X83934372Y-56431009D01*
X83934372Y-56431009D02*
X83934372Y-56526247D01*
X83934372Y-56526247D02*
X83458182Y-56621485D01*
X84315325Y-56907200D02*
X84410563Y-56954819D01*
X84410563Y-56954819D02*
X84601039Y-56954819D01*
X84601039Y-56954819D02*
X84696277Y-56907200D01*
X84696277Y-56907200D02*
X84743896Y-56811961D01*
X84743896Y-56811961D02*
X84743896Y-56764342D01*
X84743896Y-56764342D02*
X84696277Y-56669104D01*
X84696277Y-56669104D02*
X84601039Y-56621485D01*
X84601039Y-56621485D02*
X84458182Y-56621485D01*
X84458182Y-56621485D02*
X84362944Y-56573866D01*
X84362944Y-56573866D02*
X84315325Y-56478628D01*
X84315325Y-56478628D02*
X84315325Y-56431009D01*
X84315325Y-56431009D02*
X84362944Y-56335771D01*
X84362944Y-56335771D02*
X84458182Y-56288152D01*
X84458182Y-56288152D02*
X84601039Y-56288152D01*
X84601039Y-56288152D02*
X84696277Y-56335771D01*
X85553420Y-56907200D02*
X85458182Y-56954819D01*
X85458182Y-56954819D02*
X85267706Y-56954819D01*
X85267706Y-56954819D02*
X85172468Y-56907200D01*
X85172468Y-56907200D02*
X85124849Y-56811961D01*
X85124849Y-56811961D02*
X85124849Y-56431009D01*
X85124849Y-56431009D02*
X85172468Y-56335771D01*
X85172468Y-56335771D02*
X85267706Y-56288152D01*
X85267706Y-56288152D02*
X85458182Y-56288152D01*
X85458182Y-56288152D02*
X85553420Y-56335771D01*
X85553420Y-56335771D02*
X85601039Y-56431009D01*
X85601039Y-56431009D02*
X85601039Y-56526247D01*
X85601039Y-56526247D02*
X85124849Y-56621485D01*
X85886754Y-56288152D02*
X86267706Y-56288152D01*
X86029611Y-55954819D02*
X86029611Y-56811961D01*
X86029611Y-56811961D02*
X86077230Y-56907200D01*
X86077230Y-56907200D02*
X86172468Y-56954819D01*
X86172468Y-56954819D02*
X86267706Y-56954819D01*
D12*
%TO.C,R1*%
X95639564Y-43160000D02*
X94185436Y-43160000D01*
X95639564Y-41340000D02*
X94185436Y-41340000D01*
%TO.C,D2*%
X87365000Y-60385000D02*
X89635000Y-60385000D01*
X89635000Y-60385000D02*
X89635000Y-56500000D01*
X87365000Y-56500000D02*
X87365000Y-60385000D01*
%TO.C,D1*%
X86785000Y-67385000D02*
X86785000Y-65115000D01*
X86785000Y-65115000D02*
X82900000Y-65115000D01*
X82900000Y-67385000D02*
X86785000Y-67385000D01*
%TO.C,LED1*%
X85120000Y-44760000D02*
X85120000Y-39460000D01*
X85120000Y-44760000D02*
X89100000Y-44760000D01*
X88410000Y-39460000D02*
X85120000Y-39460000D01*
X88410000Y-39460000D02*
X89100000Y-40120000D01*
X89100000Y-44760000D02*
X89100000Y-40120000D01*
%TO.C,U2*%
X89850000Y-48202500D02*
X90690000Y-48202500D01*
X89850000Y-50962500D02*
X89850000Y-48202500D01*
X89850000Y-50962500D02*
X89850000Y-53722500D01*
X89850000Y-53722500D02*
X90690000Y-53722500D01*
X100270000Y-48202500D02*
X99430000Y-48202500D01*
X100270000Y-50962500D02*
X100270000Y-48202500D01*
X100270000Y-50962500D02*
X100270000Y-53722500D01*
X100270000Y-53722500D02*
X99430000Y-53722500D01*
X90690000Y-54512500D02*
X90360000Y-54752500D01*
X90360000Y-54272500D01*
X90690000Y-54512500D01*
G36*
X90690000Y-54512500D02*
G01*
X90360000Y-54752500D01*
X90360000Y-54272500D01*
X90690000Y-54512500D01*
G37*
%TO.C,LED2*%
X100870000Y-44760000D02*
X100870000Y-39460000D01*
X100870000Y-44760000D02*
X104850000Y-44760000D01*
X104160000Y-39460000D02*
X100870000Y-39460000D01*
X104160000Y-39460000D02*
X104850000Y-40120000D01*
X104850000Y-44760000D02*
X104850000Y-40120000D01*
%TO.C,SW2*%
X103150000Y-58675000D02*
X103200000Y-58675000D01*
X103150000Y-63575000D02*
X103150000Y-58675000D01*
X103150000Y-63575000D02*
X103200000Y-63575000D01*
X104850000Y-58675000D02*
X106350000Y-58675000D01*
X104850000Y-63575000D02*
X106350000Y-63575000D01*
X108050000Y-58675000D02*
X108000000Y-58675000D01*
X108050000Y-63575000D02*
X108000000Y-63575000D01*
X108050000Y-63575000D02*
X108050000Y-58675000D01*
%TO.C,SW1*%
X81950000Y-58675000D02*
X81950000Y-63575000D01*
X81950000Y-58675000D02*
X82000000Y-58675000D01*
X81950000Y-63575000D02*
X82000000Y-63575000D01*
X85150000Y-58675000D02*
X83650000Y-58675000D01*
X85150000Y-63575000D02*
X83650000Y-63575000D01*
X86850000Y-58675000D02*
X86800000Y-58675000D01*
X86850000Y-58675000D02*
X86850000Y-63575000D01*
X86850000Y-63575000D02*
X86800000Y-63575000D01*
%TO.C,J1*%
X88276667Y-63957500D02*
X88276667Y-67697500D01*
X101723333Y-63957500D02*
X88276667Y-63957500D01*
X101723333Y-67697500D02*
X101723333Y-63957500D01*
X101963333Y-63717500D02*
X97770000Y-63717500D01*
X101963333Y-65957500D02*
X101963333Y-63717500D01*
%TD*%
M02*
