M48
; DRILL file {KiCad 9.0.3} date 2026-02-22T22:03:47+0000
; FORMAT={-:-/ absolute / inch / decimal}
; #@! TF.CreationDate,2026-02-22T22:03:47+00:00
; #@! TF.GenerationSoftware,Kicad,Pcbnew,9.0.3
; #@! TF.FileFunction,MixedPlating,1,2
FMAT,2
INCH
; #@! TA.AperFunction,Plated,PTH,ViaDrill
T1C0.0118
%
G90
G05
T1
X3.2856Y-1.8903
X3.3169Y-2.0374
X3.3169Y-2.4114
X3.4547Y-2.4705
X3.5039Y-1.8354
X3.5039Y-2.185
X3.5039Y-2.4114
X3.5433Y-1.7913
X3.5433Y-2.185
X3.5925Y-1.9685
X3.6122Y-2.2244
X3.6417Y-1.7323
X3.6811Y-2.0472
X3.6909Y-1.7913
X3.6909Y-1.998
X3.7402Y-2.0709
X3.744Y-2.199
X3.7598Y-1.9488
X3.7956Y-2.0945
X3.8101Y-1.6364
X3.8189Y-2.2244
X3.878Y-1.5354
X3.878Y-2.2244
X3.8976Y-2.4803
X3.9075Y-1.7618
X3.9077Y-2.1996
X3.9173Y-1.5945
X3.9567Y-2.1358
X3.9764Y-2.4803
X3.9862Y-2.1063
X4.1568Y-1.5953
X4.1612Y-2.5092
X4.1929Y-2.1358
X4.1929Y-2.2146
M30
