%TF.GenerationSoftware,KiCad,Pcbnew,9.0.3*%
%TF.CreationDate,2026-06-16T21:44:30+01:00*%
%TF.ProjectId,AmiBLEHID,416d6942-4c45-4484-9944-2e6b69636164,rev?*%
%TF.SameCoordinates,Original*%
%TF.FileFunction,Legend,Bot*%
%TF.FilePolarity,Positive*%
%FSLAX46Y46*%
G04 Gerber Fmt 4.6, Leading zero omitted, Abs format (unit mm)*
G04 Created by KiCad (PCBNEW 9.0.3) date 2026-06-16 21:44:30*
%MOMM*%
%LPD*%
G01*
G04 APERTURE LIST*
%ADD10C,0.100000*%
%ADD11C,0.150000*%
%ADD12C,0.120000*%
G04 APERTURE END LIST*
D10*
X100633677Y-39364895D02*
X101090820Y-39364895D01*
X100862248Y-39364895D02*
X100862248Y-38564895D01*
X100862248Y-38564895D02*
X100938439Y-38679180D01*
X100938439Y-38679180D02*
X101014629Y-38755371D01*
X101014629Y-38755371D02*
X101090820Y-38793466D01*
X99681295Y-39060133D02*
X99071772Y-39060133D01*
X99376533Y-39364895D02*
X99376533Y-38755371D01*
X98309867Y-38564895D02*
X98690819Y-38564895D01*
X98690819Y-38564895D02*
X98728915Y-38945847D01*
X98728915Y-38945847D02*
X98690819Y-38907752D01*
X98690819Y-38907752D02*
X98614629Y-38869657D01*
X98614629Y-38869657D02*
X98424153Y-38869657D01*
X98424153Y-38869657D02*
X98347962Y-38907752D01*
X98347962Y-38907752D02*
X98309867Y-38945847D01*
X98309867Y-38945847D02*
X98271772Y-39022038D01*
X98271772Y-39022038D02*
X98271772Y-39212514D01*
X98271772Y-39212514D02*
X98309867Y-39288704D01*
X98309867Y-39288704D02*
X98347962Y-39326800D01*
X98347962Y-39326800D02*
X98424153Y-39364895D01*
X98424153Y-39364895D02*
X98614629Y-39364895D01*
X98614629Y-39364895D02*
X98690819Y-39326800D01*
X98690819Y-39326800D02*
X98728915Y-39288704D01*
X98043200Y-38564895D02*
X97776533Y-39364895D01*
X97776533Y-39364895D02*
X97509867Y-38564895D01*
X101109671Y-41181085D02*
X101071575Y-41142990D01*
X101071575Y-41142990D02*
X100995385Y-41104895D01*
X100995385Y-41104895D02*
X100804909Y-41104895D01*
X100804909Y-41104895D02*
X100728718Y-41142990D01*
X100728718Y-41142990D02*
X100690623Y-41181085D01*
X100690623Y-41181085D02*
X100652528Y-41257276D01*
X100652528Y-41257276D02*
X100652528Y-41333466D01*
X100652528Y-41333466D02*
X100690623Y-41447752D01*
X100690623Y-41447752D02*
X101147766Y-41904895D01*
X101147766Y-41904895D02*
X100652528Y-41904895D01*
X99281099Y-41142990D02*
X99357289Y-41104895D01*
X99357289Y-41104895D02*
X99471575Y-41104895D01*
X99471575Y-41104895D02*
X99585861Y-41142990D01*
X99585861Y-41142990D02*
X99662051Y-41219180D01*
X99662051Y-41219180D02*
X99700146Y-41295371D01*
X99700146Y-41295371D02*
X99738242Y-41447752D01*
X99738242Y-41447752D02*
X99738242Y-41562038D01*
X99738242Y-41562038D02*
X99700146Y-41714419D01*
X99700146Y-41714419D02*
X99662051Y-41790609D01*
X99662051Y-41790609D02*
X99585861Y-41866800D01*
X99585861Y-41866800D02*
X99471575Y-41904895D01*
X99471575Y-41904895D02*
X99395384Y-41904895D01*
X99395384Y-41904895D02*
X99281099Y-41866800D01*
X99281099Y-41866800D02*
X99243003Y-41828704D01*
X99243003Y-41828704D02*
X99243003Y-41562038D01*
X99243003Y-41562038D02*
X99395384Y-41562038D01*
X98900146Y-41904895D02*
X98900146Y-41104895D01*
X98900146Y-41104895D02*
X98443003Y-41904895D01*
X98443003Y-41904895D02*
X98443003Y-41104895D01*
X98062051Y-41904895D02*
X98062051Y-41104895D01*
X98062051Y-41104895D02*
X97871575Y-41104895D01*
X97871575Y-41104895D02*
X97757289Y-41142990D01*
X97757289Y-41142990D02*
X97681099Y-41219180D01*
X97681099Y-41219180D02*
X97643004Y-41295371D01*
X97643004Y-41295371D02*
X97604908Y-41447752D01*
X97604908Y-41447752D02*
X97604908Y-41562038D01*
X97604908Y-41562038D02*
X97643004Y-41714419D01*
X97643004Y-41714419D02*
X97681099Y-41790609D01*
X97681099Y-41790609D02*
X97757289Y-41866800D01*
X97757289Y-41866800D02*
X97871575Y-41904895D01*
X97871575Y-41904895D02*
X98062051Y-41904895D01*
X89652381Y-39364895D02*
X90109524Y-39364895D01*
X89880952Y-39364895D02*
X89880952Y-38564895D01*
X89880952Y-38564895D02*
X89957143Y-38679180D01*
X89957143Y-38679180D02*
X90033333Y-38755371D01*
X90033333Y-38755371D02*
X90109524Y-38793466D01*
X89195238Y-38907752D02*
X89271428Y-38869657D01*
X89271428Y-38869657D02*
X89309523Y-38831561D01*
X89309523Y-38831561D02*
X89347619Y-38755371D01*
X89347619Y-38755371D02*
X89347619Y-38717276D01*
X89347619Y-38717276D02*
X89309523Y-38641085D01*
X89309523Y-38641085D02*
X89271428Y-38602990D01*
X89271428Y-38602990D02*
X89195238Y-38564895D01*
X89195238Y-38564895D02*
X89042857Y-38564895D01*
X89042857Y-38564895D02*
X88966666Y-38602990D01*
X88966666Y-38602990D02*
X88928571Y-38641085D01*
X88928571Y-38641085D02*
X88890476Y-38717276D01*
X88890476Y-38717276D02*
X88890476Y-38755371D01*
X88890476Y-38755371D02*
X88928571Y-38831561D01*
X88928571Y-38831561D02*
X88966666Y-38869657D01*
X88966666Y-38869657D02*
X89042857Y-38907752D01*
X89042857Y-38907752D02*
X89195238Y-38907752D01*
X89195238Y-38907752D02*
X89271428Y-38945847D01*
X89271428Y-38945847D02*
X89309523Y-38983942D01*
X89309523Y-38983942D02*
X89347619Y-39060133D01*
X89347619Y-39060133D02*
X89347619Y-39212514D01*
X89347619Y-39212514D02*
X89309523Y-39288704D01*
X89309523Y-39288704D02*
X89271428Y-39326800D01*
X89271428Y-39326800D02*
X89195238Y-39364895D01*
X89195238Y-39364895D02*
X89042857Y-39364895D01*
X89042857Y-39364895D02*
X88966666Y-39326800D01*
X88966666Y-39326800D02*
X88928571Y-39288704D01*
X88928571Y-39288704D02*
X88890476Y-39212514D01*
X88890476Y-39212514D02*
X88890476Y-39060133D01*
X88890476Y-39060133D02*
X88928571Y-38983942D01*
X88928571Y-38983942D02*
X88966666Y-38945847D01*
X88966666Y-38945847D02*
X89042857Y-38907752D01*
X89980075Y-59713449D02*
X90437218Y-59713449D01*
X90208646Y-59713449D02*
X90208646Y-58913449D01*
X90208646Y-58913449D02*
X90284837Y-59027734D01*
X90284837Y-59027734D02*
X90361027Y-59103925D01*
X90361027Y-59103925D02*
X90437218Y-59142020D01*
X89484836Y-58913449D02*
X89408646Y-58913449D01*
X89408646Y-58913449D02*
X89332455Y-58951544D01*
X89332455Y-58951544D02*
X89294360Y-58989639D01*
X89294360Y-58989639D02*
X89256265Y-59065830D01*
X89256265Y-59065830D02*
X89218170Y-59218211D01*
X89218170Y-59218211D02*
X89218170Y-59408687D01*
X89218170Y-59408687D02*
X89256265Y-59561068D01*
X89256265Y-59561068D02*
X89294360Y-59637258D01*
X89294360Y-59637258D02*
X89332455Y-59675354D01*
X89332455Y-59675354D02*
X89408646Y-59713449D01*
X89408646Y-59713449D02*
X89484836Y-59713449D01*
X89484836Y-59713449D02*
X89561027Y-59675354D01*
X89561027Y-59675354D02*
X89599122Y-59637258D01*
X89599122Y-59637258D02*
X89637217Y-59561068D01*
X89637217Y-59561068D02*
X89675313Y-59408687D01*
X89675313Y-59408687D02*
X89675313Y-59218211D01*
X89675313Y-59218211D02*
X89637217Y-59065830D01*
X89637217Y-59065830D02*
X89599122Y-58989639D01*
X89599122Y-58989639D02*
X89561027Y-58951544D01*
X89561027Y-58951544D02*
X89484836Y-58913449D01*
X101014629Y-59788850D02*
X100862248Y-59788850D01*
X100862248Y-59788850D02*
X100786058Y-59750755D01*
X100786058Y-59750755D02*
X100747962Y-59712659D01*
X100747962Y-59712659D02*
X100671772Y-59598374D01*
X100671772Y-59598374D02*
X100633677Y-59445993D01*
X100633677Y-59445993D02*
X100633677Y-59141231D01*
X100633677Y-59141231D02*
X100671772Y-59065040D01*
X100671772Y-59065040D02*
X100709867Y-59026945D01*
X100709867Y-59026945D02*
X100786058Y-58988850D01*
X100786058Y-58988850D02*
X100938439Y-58988850D01*
X100938439Y-58988850D02*
X101014629Y-59026945D01*
X101014629Y-59026945D02*
X101052724Y-59065040D01*
X101052724Y-59065040D02*
X101090820Y-59141231D01*
X101090820Y-59141231D02*
X101090820Y-59331707D01*
X101090820Y-59331707D02*
X101052724Y-59407897D01*
X101052724Y-59407897D02*
X101014629Y-59445993D01*
X101014629Y-59445993D02*
X100938439Y-59484088D01*
X100938439Y-59484088D02*
X100786058Y-59484088D01*
X100786058Y-59484088D02*
X100709867Y-59445993D01*
X100709867Y-59445993D02*
X100671772Y-59407897D01*
X100671772Y-59407897D02*
X100633677Y-59331707D01*
X95619523Y-44064895D02*
X95619523Y-44712514D01*
X95619523Y-44712514D02*
X95581428Y-44788704D01*
X95581428Y-44788704D02*
X95543333Y-44826800D01*
X95543333Y-44826800D02*
X95467142Y-44864895D01*
X95467142Y-44864895D02*
X95314761Y-44864895D01*
X95314761Y-44864895D02*
X95238571Y-44826800D01*
X95238571Y-44826800D02*
X95200476Y-44788704D01*
X95200476Y-44788704D02*
X95162380Y-44712514D01*
X95162380Y-44712514D02*
X95162380Y-44064895D01*
X94362381Y-44864895D02*
X94819524Y-44864895D01*
X94590952Y-44864895D02*
X94590952Y-44064895D01*
X94590952Y-44064895D02*
X94667143Y-44179180D01*
X94667143Y-44179180D02*
X94743333Y-44255371D01*
X94743333Y-44255371D02*
X94819524Y-44293466D01*
D11*
X99848095Y-45943247D02*
X99581429Y-45943247D01*
X99467143Y-46362295D02*
X99848095Y-46362295D01*
X99848095Y-46362295D02*
X99848095Y-45562295D01*
X99848095Y-45562295D02*
X99467143Y-45562295D01*
X99162381Y-46324200D02*
X99048095Y-46362295D01*
X99048095Y-46362295D02*
X98857619Y-46362295D01*
X98857619Y-46362295D02*
X98781428Y-46324200D01*
X98781428Y-46324200D02*
X98743333Y-46286104D01*
X98743333Y-46286104D02*
X98705238Y-46209914D01*
X98705238Y-46209914D02*
X98705238Y-46133723D01*
X98705238Y-46133723D02*
X98743333Y-46057533D01*
X98743333Y-46057533D02*
X98781428Y-46019438D01*
X98781428Y-46019438D02*
X98857619Y-45981342D01*
X98857619Y-45981342D02*
X99010000Y-45943247D01*
X99010000Y-45943247D02*
X99086190Y-45905152D01*
X99086190Y-45905152D02*
X99124285Y-45867057D01*
X99124285Y-45867057D02*
X99162381Y-45790866D01*
X99162381Y-45790866D02*
X99162381Y-45714676D01*
X99162381Y-45714676D02*
X99124285Y-45638485D01*
X99124285Y-45638485D02*
X99086190Y-45600390D01*
X99086190Y-45600390D02*
X99010000Y-45562295D01*
X99010000Y-45562295D02*
X98819523Y-45562295D01*
X98819523Y-45562295D02*
X98705238Y-45600390D01*
X98362380Y-46362295D02*
X98362380Y-45562295D01*
X98362380Y-45562295D02*
X98057618Y-45562295D01*
X98057618Y-45562295D02*
X97981428Y-45600390D01*
X97981428Y-45600390D02*
X97943333Y-45638485D01*
X97943333Y-45638485D02*
X97905237Y-45714676D01*
X97905237Y-45714676D02*
X97905237Y-45828961D01*
X97905237Y-45828961D02*
X97943333Y-45905152D01*
X97943333Y-45905152D02*
X97981428Y-45943247D01*
X97981428Y-45943247D02*
X98057618Y-45981342D01*
X98057618Y-45981342D02*
X98362380Y-45981342D01*
X97638571Y-45562295D02*
X97143333Y-45562295D01*
X97143333Y-45562295D02*
X97409999Y-45867057D01*
X97409999Y-45867057D02*
X97295714Y-45867057D01*
X97295714Y-45867057D02*
X97219523Y-45905152D01*
X97219523Y-45905152D02*
X97181428Y-45943247D01*
X97181428Y-45943247D02*
X97143333Y-46019438D01*
X97143333Y-46019438D02*
X97143333Y-46209914D01*
X97143333Y-46209914D02*
X97181428Y-46286104D01*
X97181428Y-46286104D02*
X97219523Y-46324200D01*
X97219523Y-46324200D02*
X97295714Y-46362295D01*
X97295714Y-46362295D02*
X97524285Y-46362295D01*
X97524285Y-46362295D02*
X97600476Y-46324200D01*
X97600476Y-46324200D02*
X97638571Y-46286104D01*
X96838571Y-45638485D02*
X96800475Y-45600390D01*
X96800475Y-45600390D02*
X96724285Y-45562295D01*
X96724285Y-45562295D02*
X96533809Y-45562295D01*
X96533809Y-45562295D02*
X96457618Y-45600390D01*
X96457618Y-45600390D02*
X96419523Y-45638485D01*
X96419523Y-45638485D02*
X96381428Y-45714676D01*
X96381428Y-45714676D02*
X96381428Y-45790866D01*
X96381428Y-45790866D02*
X96419523Y-45905152D01*
X96419523Y-45905152D02*
X96876666Y-46362295D01*
X96876666Y-46362295D02*
X96381428Y-46362295D01*
X96038570Y-46057533D02*
X95429047Y-46057533D01*
X95048094Y-46362295D02*
X95048094Y-45562295D01*
X95048094Y-45943247D02*
X94590951Y-45943247D01*
X94590951Y-46362295D02*
X94590951Y-45562295D01*
X94248095Y-45638485D02*
X94209999Y-45600390D01*
X94209999Y-45600390D02*
X94133809Y-45562295D01*
X94133809Y-45562295D02*
X93943333Y-45562295D01*
X93943333Y-45562295D02*
X93867142Y-45600390D01*
X93867142Y-45600390D02*
X93829047Y-45638485D01*
X93829047Y-45638485D02*
X93790952Y-45714676D01*
X93790952Y-45714676D02*
X93790952Y-45790866D01*
X93790952Y-45790866D02*
X93829047Y-45905152D01*
X93829047Y-45905152D02*
X94286190Y-46362295D01*
X94286190Y-46362295D02*
X93790952Y-46362295D01*
X93448094Y-46057533D02*
X92838571Y-46057533D01*
X92533809Y-45562295D02*
X92000475Y-45562295D01*
X92000475Y-45562295D02*
X92533809Y-46362295D01*
X92533809Y-46362295D02*
X92000475Y-46362295D01*
X91390951Y-46324200D02*
X91467142Y-46362295D01*
X91467142Y-46362295D02*
X91619523Y-46362295D01*
X91619523Y-46362295D02*
X91695713Y-46324200D01*
X91695713Y-46324200D02*
X91733809Y-46248009D01*
X91733809Y-46248009D02*
X91733809Y-45943247D01*
X91733809Y-45943247D02*
X91695713Y-45867057D01*
X91695713Y-45867057D02*
X91619523Y-45828961D01*
X91619523Y-45828961D02*
X91467142Y-45828961D01*
X91467142Y-45828961D02*
X91390951Y-45867057D01*
X91390951Y-45867057D02*
X91352856Y-45943247D01*
X91352856Y-45943247D02*
X91352856Y-46019438D01*
X91352856Y-46019438D02*
X91733809Y-46095628D01*
X91009999Y-46362295D02*
X91009999Y-45828961D01*
X91009999Y-45981342D02*
X90971904Y-45905152D01*
X90971904Y-45905152D02*
X90933809Y-45867057D01*
X90933809Y-45867057D02*
X90857618Y-45828961D01*
X90857618Y-45828961D02*
X90781428Y-45828961D01*
X90400476Y-46362295D02*
X90476666Y-46324200D01*
X90476666Y-46324200D02*
X90514761Y-46286104D01*
X90514761Y-46286104D02*
X90552857Y-46209914D01*
X90552857Y-46209914D02*
X90552857Y-45981342D01*
X90552857Y-45981342D02*
X90514761Y-45905152D01*
X90514761Y-45905152D02*
X90476666Y-45867057D01*
X90476666Y-45867057D02*
X90400476Y-45828961D01*
X90400476Y-45828961D02*
X90286190Y-45828961D01*
X90286190Y-45828961D02*
X90209999Y-45867057D01*
X90209999Y-45867057D02*
X90171904Y-45905152D01*
X90171904Y-45905152D02*
X90133809Y-45981342D01*
X90133809Y-45981342D02*
X90133809Y-46209914D01*
X90133809Y-46209914D02*
X90171904Y-46286104D01*
X90171904Y-46286104D02*
X90209999Y-46324200D01*
X90209999Y-46324200D02*
X90286190Y-46362295D01*
X90286190Y-46362295D02*
X90400476Y-46362295D01*
%TO.C,U1*%
D12*
X104010000Y-37410000D02*
X86010000Y-37410000D01*
X86010000Y-60910000D01*
X104010000Y-60910000D01*
X104010000Y-37410000D01*
D10*
X99360000Y-37410000D02*
X90680000Y-37410000D01*
X90680000Y-35910000D01*
X99360000Y-35910000D01*
X99360000Y-37410000D01*
%TD*%
M02*
